<svg width="32" height="32" viewBox="0 0 32 32" fill="none" xmlns="http://www.w3.org/2000/svg">
<g clip-path="url(#clip0)">
<path d="M5.58772 27.5247C5.79506 27.6727 6.06379 27.7039 6.29951 27.6075L14.4665 24.2646C14.587 24.2154 14.6924 24.1352 14.772 24.0324L26.7157 8.61049C27.4799 7.6236 27.8176 6.37146 27.6525 5.1338C27.4878 3.89642 26.8342 2.77633 25.8377 2.024L24.464 0.986145C22.4195 -0.54718 19.5235 -0.159722 17.9539 1.8572L5.95056 17.3891C5.85934 17.5075 5.80577 17.6509 5.79708 17.8L5.27816 26.8789C5.26368 27.1332 5.38067 27.377 5.58772 27.5247V27.5247ZM7.19547 19.3142L12.6506 23.4054L6.82538 25.7895L7.19547 19.3142ZM14.0209 22.5798L7.55831 17.7331L17.3059 5.12019L23.7528 10.0144L14.0209 22.5798ZM19.127 2.76359C20.1985 1.38721 22.1748 1.12254 23.5703 2.16908L24.9441 3.20693C25.6243 3.72036 26.0703 4.48485 26.1829 5.32955C26.2956 6.17426 26.0651 7.02881 25.5432 7.70266L24.6606 8.84215L18.2125 3.9471L19.127 2.76359Z" fill="#202842"/>
<path d="M31.2587 30.5201H0.74132C0.331855 30.5201 -3.8147e-06 30.852 -3.8147e-06 31.2615C-3.8147e-06 31.6709 0.331855 32.0028 0.74132 32.0028H31.2587C31.6681 32.0028 32 31.6709 32 31.2615C32 30.852 31.6681 30.5201 31.2587 30.5201Z" fill="#202842"/>
</g>
<defs>
<clipPath id="clip0">
<rect width="32" height="32" fill="white"/>
</clipPath>
</defs>
</svg>
