<svg width="32" height="32" viewBox="0 0 32 32" fill="none" xmlns="http://www.w3.org/2000/svg">
<g clip-path="url(#clip0)">
<path d="M31.4483 3.3103H0.551725C0.247173 3.3103 9.53674e-07 3.55692 9.53674e-07 3.86203V28.1379C9.53674e-07 28.443 0.247173 28.6896 0.551725 28.6896H31.4483C31.7528 28.6896 32 28.443 32 28.1379V3.86203C32 3.55692 31.7528 3.3103 31.4483 3.3103ZM30.8966 27.5862H1.10345V4.41375H30.8966V27.5862Z" fill="#202842"/>
<path d="M8.82758 15.5243C10.5219 15.5243 11.9001 14.1461 11.9001 12.4523C11.9001 10.7574 10.5219 9.37915 8.82758 9.37915C7.13324 9.37915 5.75504 10.7574 5.75504 12.4517C5.75504 14.1461 7.13324 15.5243 8.82758 15.5243ZM8.82758 10.4826C9.91338 10.4826 10.7967 11.3665 10.7967 12.4517C10.7967 13.5369 9.91338 14.4208 8.82758 14.4208C7.74179 14.4208 6.85848 13.5375 6.85848 12.4523C6.85848 11.367 7.74179 10.4826 8.82758 10.4826Z" fill="#202842"/>
<path d="M3.86207 25.3792C3.99118 25.3792 4.12138 25.334 4.22621 25.2418L13.2265 17.318L18.9103 23.0013C19.1261 23.217 19.4748 23.217 19.6905 23.0013C19.9062 22.7855 19.9062 22.4369 19.6905 22.2211L17.0383 19.569L22.1037 14.022L28.3167 19.7174C28.5412 19.9232 28.8905 19.9078 29.0963 19.6832C29.3021 19.4586 29.2872 19.1094 29.0621 18.9036L22.4414 12.8347C22.3332 12.7359 22.1892 12.6868 22.0441 12.6901C21.8979 12.6967 21.76 12.7613 21.6612 12.8694L16.2577 18.7878L13.6408 16.1709C13.4345 15.9651 13.1046 15.9547 12.8861 16.1467L3.49738 24.4131C3.26842 24.6145 3.24635 24.9632 3.44773 25.1922C3.55697 25.3163 3.70925 25.3792 3.86207 25.3792Z" fill="#202842"/>
</g>
<defs>
<clipPath id="clip0">
<rect width="32" height="32" fill="white"/>
</clipPath>
</defs>
</svg>
