<svg width="32" height="32" viewBox="0 0 32 32" fill="none" xmlns="http://www.w3.org/2000/svg">
<g clip-path="url(#clip0)">
<path d="M22.0828 30.4351H9.91722C9.29228 30.4489 8.67462 30.2989 8.12557 30.0001C7.57652 29.7014 7.11517 29.2642 6.78735 28.7319L0.394895 17.6723C0.136313 17.2313 0 16.7293 0 16.218C0 15.7067 0.136313 15.2047 0.394895 14.7637L6.78735 3.70405C7.11517 3.17183 7.57652 2.73462 8.12557 2.43584C8.67462 2.13706 9.29228 1.98711 9.91722 2.00087H22.0828C22.7152 1.99505 23.3379 2.15672 23.8876 2.46946C24.4373 2.7822 24.8945 3.23486 25.2127 3.78147L31.6051 14.8411C31.8637 15.2821 32 15.7841 32 16.2954C32 16.8067 31.8637 17.3087 31.6051 17.7497L25.2127 28.8094C24.8754 29.3272 24.41 29.7491 23.8616 30.034C23.3132 30.3188 22.7004 30.457 22.0828 30.4351ZM9.91722 3.73723C9.58227 3.72487 9.24977 3.79872 8.95155 3.9517C8.65333 4.10468 8.39938 4.33168 8.21404 4.61094L1.82158 15.6705C1.70854 15.8594 1.64884 16.0753 1.64884 16.2954C1.64884 16.5155 1.70854 16.7314 1.82158 16.9203L8.21404 27.9799C8.39938 28.2591 8.65333 28.4861 8.95155 28.6391C9.24977 28.7921 9.58227 28.8659 9.91722 28.8536H22.0828C22.4177 28.8659 22.7502 28.7921 23.0485 28.6391C23.3467 28.4861 23.6006 28.2591 23.786 27.9799L30.1784 16.9203C30.2915 16.7314 30.3512 16.5155 30.3512 16.2954C30.3512 16.0753 30.2915 15.8594 30.1784 15.6705L23.786 4.61094C23.6006 4.33168 23.3467 4.10468 23.0485 3.9517C22.7502 3.79872 22.4177 3.72487 22.0828 3.73723H9.91722Z" fill="#202842"/>
<path d="M16 22.6159C14.7423 22.6159 13.5128 22.2429 12.467 21.5442C11.4212 20.8454 10.6061 19.8522 10.1248 18.6902C9.6435 17.5282 9.51757 16.2496 9.76294 15.016C10.0083 13.7824 10.614 12.6493 11.5033 11.7599C12.3927 10.8706 13.5258 10.2649 14.7594 10.0195C15.993 9.77416 17.2716 9.90009 18.4336 10.3814C19.5956 10.8627 20.5888 11.6778 21.2876 12.7236C21.9863 13.7694 22.3593 14.9989 22.3593 16.2566C22.3564 17.9423 21.6854 19.5581 20.4935 20.7501C19.3015 21.942 17.6857 22.613 16 22.6159ZM16 11.5563C15.0704 11.5563 14.1616 11.832 13.3887 12.3484C12.6157 12.8649 12.0132 13.599 11.6575 14.4579C11.3017 15.3167 11.2086 16.2618 11.39 17.1736C11.5714 18.0854 12.019 18.9229 12.6764 19.5803C13.3337 20.2376 14.1713 20.6853 15.083 20.8666C15.9948 21.048 16.9399 20.9549 17.7988 20.5992C18.6576 20.2434 19.3917 19.6409 19.9082 18.868C20.4247 18.095 20.7004 17.1863 20.7004 16.2566C20.7004 15.01 20.2051 13.8145 19.3237 12.933C18.4422 12.0515 17.2466 11.5563 16 11.5563Z" fill="#202842"/>
</g>
<defs>
<clipPath id="clip0">
<rect width="32" height="32" fill="white"/>
</clipPath>
</defs>
</svg>
