<svg width="32" height="32" viewBox="0 0 32 32" fill="none" xmlns="http://www.w3.org/2000/svg">
<g clip-path="url(#clip0)">
<path d="M28.5088 31.1859V26.6987C28.5088 21.1458 24.8687 16.4269 19.8585 14.7988C22.2676 13.442 23.9024 10.8608 23.9024 7.90238C23.9024 3.54747 20.3549 0 16 0C11.6451 0 8.09762 3.54747 8.09762 7.90238C8.09762 10.8608 9.73237 13.442 12.1415 14.7988C7.12472 16.4269 3.49121 21.1458 3.49121 26.6987V31.1859C3.49121 31.636 3.85522 32 4.30528 32H27.708C28.1448 31.9934 28.5088 31.636 28.5088 31.1859ZM9.71252 7.90238C9.71252 4.44095 12.532 1.62151 15.9934 1.62151C19.4548 1.62151 22.2743 4.44095 22.2743 7.90238C22.2743 11.3638 19.4548 14.1832 15.9934 14.1832C12.532 14.1832 9.71252 11.3638 9.71252 7.90238ZM26.8873 30.3719H5.09949V26.692C5.09949 20.6891 9.98387 15.7981 15.9934 15.7981C22.0029 15.7981 26.8873 20.6825 26.8873 26.692V30.3719Z" fill="#202842"/>
</g>
<defs>
<clipPath id="clip0">
<rect width="32" height="32" fill="white"/>
</clipPath>
</defs>
</svg>
