<svg width="32" height="32" viewBox="0 0 32 32" fill="none" xmlns="http://www.w3.org/2000/svg">
<g clip-path="url(#clip0)">
<path d="M20.1771 2.88108C19.8731 2.79251 19.5571 2.96679 19.4686 3.26965C19.38 3.57251 19.5537 3.88965 19.8571 3.97822C25.6606 5.67536 29.7143 11.0885 29.7143 17.1428C29.7143 24.7045 23.5617 30.8571 16 30.8571C8.43828 30.8571 2.28571 24.7045 2.28571 17.1428C2.28571 11.0811 6.34571 5.66565 12.1594 3.97308C12.4623 3.88508 12.6366 3.56794 12.5486 3.26508C12.4611 2.96222 12.144 2.78565 11.8406 2.87594C5.54171 4.70908 1.14285 10.5759 1.14285 17.1428C1.14285 25.3354 7.80742 31.9999 16 31.9999C24.1926 31.9999 30.8571 25.3354 30.8571 17.1428C30.8571 10.5839 26.4651 4.71994 20.1771 2.88108Z" fill="#202842"/>
<path d="M16 15.4286C16.316 15.4286 16.5714 15.1731 16.5714 14.8571V0.571429C16.5714 0.255429 16.316 0 16 0C15.684 0 15.4286 0.255429 15.4286 0.571429V14.8571C15.4286 15.1731 15.684 15.4286 16 15.4286Z" fill="#202842"/>
</g>
<defs>
<clipPath id="clip0">
<rect width="32" height="32" fill="white"/>
</clipPath>
</defs>
</svg>
