<svg width="32" height="32" viewBox="0 0 32 32" fill="none" xmlns="http://www.w3.org/2000/svg">
<g clip-path="url(#clip0)">
<path d="M30.9844 14.051L16.7456 0.303373C16.3308 -0.100962 15.6692 -0.100962 15.2544 0.303373L1.01614 14.0505C0.806523 14.2528 0.688162 14.5316 0.688162 14.8229C0.688162 15.4159 1.16885 15.8965 1.76174 15.8965H3.65391V30.9265C3.65391 31.5195 4.13453 32.0001 4.72748 32.0001H12.2425C12.8354 32.0001 13.3161 31.5195 13.3161 30.9265V22.3379H18.6839V30.9265C18.6839 31.5195 19.1646 32.0001 19.7575 32.0001H27.2725C27.8655 32.0001 28.3461 31.5195 28.3461 30.9265V15.8965H30.2383C30.5293 15.8965 30.8079 15.7783 31.0102 15.569C31.4222 15.1427 31.4107 14.4631 30.9844 14.051ZM28.3461 14.8229C27.7531 14.8229 27.2725 15.3035 27.2725 15.8965V30.9265H19.7575V22.3379C19.7575 21.745 19.2769 21.2644 18.6839 21.2644H13.3161C12.7231 21.2644 12.2425 21.745 12.2425 22.3379V30.9265H4.72748V15.8965C4.72748 15.3035 4.24686 14.8229 3.65391 14.8229H1.76174L16 1.07581L30.2436 14.8229H28.3461Z" fill="#202842"/>
</g>
<defs>
<clipPath id="clip0">
<rect width="32" height="32" fill="white"/>
</clipPath>
</defs>
</svg>
