<svg width="32" height="32" viewBox="0 0 32 32" fill="none" xmlns="http://www.w3.org/2000/svg">
<path d="M29.3333 17.6809V6.66663C29.3333 5.19594 28.1374 3.99994 26.6666 3.99994H14.276L11.8046 1.52856C11.6796 1.40356 11.5104 1.33325 11.3333 1.33325H2.66669C1.19594 1.33325 0 2.52925 0 3.99994V22.6666C0 24.1373 1.19594 25.3333 2.66669 25.3333H17.6176C18.4912 28.4066 21.3171 30.6666 24.6667 30.6666C28.7103 30.6666 32 27.3769 32 23.3333C32 21.061 30.961 19.0271 29.3333 17.6809ZM17.3671 23.9999H2.66669C1.93169 23.9999 1.33337 23.4016 1.33337 22.6666V3.99994C1.33337 3.26494 1.93169 2.66663 2.66669 2.66663H11.0573L13.5287 5.138C13.6537 5.263 13.8229 5.33331 14.0001 5.33331H26.6667C27.4017 5.33331 28.0001 5.93163 28.0001 6.66663V16.8095C26.9986 16.2958 25.8674 15.9999 24.6667 15.9999C20.6231 15.9999 17.3334 19.2896 17.3334 23.3333C17.3333 23.5583 17.3472 23.7801 17.3671 23.9999ZM24.6667 29.3333C21.3581 29.3333 18.6667 26.6418 18.6667 23.3333C18.6667 20.0246 21.3581 17.3333 24.6667 17.3333C27.9752 17.3333 30.6667 20.0247 30.6667 23.3333C30.6667 26.6419 27.9752 29.3333 24.6667 29.3333Z" fill="#202842"/>
<path d="M26.862 24.1952L25.3334 25.7238V19.3332C25.3334 18.9647 25.0352 18.6665 24.6667 18.6665C24.2982 18.6665 24 18.9648 24 19.3332V25.7238L22.4714 24.1952C22.2109 23.9348 21.7891 23.9348 21.5287 24.1952C21.2683 24.4556 21.2683 24.8775 21.5287 25.1379L24.1954 27.8046C24.3256 27.9348 24.4962 27.9999 24.6668 27.9999C24.8373 27.9999 25.0079 27.9348 25.1381 27.8046L27.8048 25.1379C28.0653 24.8774 28.0653 24.4556 27.8048 24.1952C27.5443 23.9348 27.1224 23.9348 26.862 24.1952Z" fill="#202842"/>
</svg>
