<svg width="32" height="32" viewBox="0 0 32 32" fill="none" xmlns="http://www.w3.org/2000/svg">
<g clip-path="url(#clip0)">
<path d="M9.14286 10.2852C9.28915 10.2852 9.43543 10.2292 9.54686 10.1177L15.4286 4.23603V24.5709C15.4286 24.8869 15.6846 25.1423 16 25.1423C16.3154 25.1423 16.5714 24.8869 16.5714 24.5709V4.23603L22.4531 10.1177C22.5646 10.2292 22.7109 10.2852 22.8571 10.2852C23.0034 10.2852 23.1497 10.2292 23.2611 10.1177C23.4846 9.89432 23.4846 9.53317 23.2611 9.30975L16.4046 2.45317C16.352 2.40003 16.2886 2.35832 16.2183 2.32917C16.0789 2.27146 15.9211 2.27146 15.7817 2.32917C15.7114 2.35832 15.6486 2.40003 15.5954 2.45317L8.73886 9.30975C8.51543 9.53317 8.51543 9.89432 8.73886 10.1177C8.85029 10.2297 8.99657 10.2852 9.14286 10.2852Z" fill="#202842"/>
<path d="M31.4286 21.7137C31.1131 21.7137 30.8571 21.9692 30.8571 22.2852V28.5709H1.14286V22.2852C1.14286 21.9692 0.886856 21.7137 0.571427 21.7137C0.255999 21.7137 -9.53674e-07 21.9692 -9.53674e-07 22.2852V29.7137H32V22.2852C32 21.9697 31.744 21.7137 31.4286 21.7137Z" fill="#202842"/>
</g>
<defs>
<clipPath id="clip0">
<rect width="32" height="32" fill="white"/>
</clipPath>
</defs>
</svg>
