<svg width="51" height="51" viewBox="0 0 51 51" fill="none" xmlns="http://www.w3.org/2000/svg">
<path d="M14.3035 47.79C25.6582 54.3835 40.9193 48.9506 47.4749 37.5304C54.0306 26.1102 50.1402 11.5073 38.7855 4.91382C27.4308 -1.67963 10.102 -1.12449 3.54634 10.2957C-3.0093 21.7159 2.94886 41.1966 14.3035 47.79Z" fill="#8EC788"/>
<path d="M21.2416 8.67703C19.7824 8.67703 18.4672 9.02263 17.296 9.71383C15.1264 11.0194 13.8496 13.0738 13.4656 15.877C13.408 16.3186 13.3792 16.8562 13.3792 17.4898C13.3792 18.1234 13.4944 18.8338 13.7248 19.621C14.0512 20.7922 14.6944 21.8482 15.6544 22.789C16.5952 23.7298 17.776 24.373 19.1968 24.7186C19.792 22.5298 20.6944 20.485 21.904 18.5842C23.1136 16.6642 24.64 15.0706 26.4832 13.8034C28.3264 12.517 30.2656 11.8738 32.3008 11.8738C34.0672 11.8738 35.1424 12.5842 35.5264 14.005C35.6416 14.3698 35.6992 14.7538 35.6992 15.157C35.6992 16.3282 35.2576 17.6242 34.3744 19.045C32.992 21.3298 30.976 23.0674 28.3264 24.2578C26.2528 25.1986 24.016 25.669 21.616 25.669H21.04C20.6368 27.0898 20.4352 28.4626 20.4352 29.7874C20.4352 32.2834 21.0688 34.0114 22.336 34.9714C22.5088 33.397 22.912 31.9186 23.5456 30.5362C24.1792 29.1538 25.0528 27.9922 26.1664 27.0514C27.2992 26.1106 28.5472 25.6402 29.9104 25.6402C31.4848 25.6402 32.464 26.341 32.848 27.7426C32.944 28.1266 32.992 28.5202 32.992 28.9234C32.992 29.9794 32.656 31.1122 31.984 32.3218C30.928 34.1842 29.4592 35.4514 27.5776 36.1234C26.2144 36.5842 24.8608 36.661 23.5168 36.3538C23.4976 36.6034 23.488 36.853 23.488 37.1026C23.488 38.5042 23.7856 39.685 24.3808 40.645C25.0528 41.7778 26.1472 42.3442 27.664 42.3442C27.6064 42.709 27.2896 42.8914 26.7136 42.8914C25.1776 42.8914 24.0448 42.2578 23.3152 40.9906C22.6048 39.7234 22.2496 38.2258 22.2496 36.4978C22.2496 36.3058 22.2496 36.1234 22.2496 35.9506C20.5984 35.2402 19.504 33.877 18.9664 31.861C18.6976 30.901 18.5632 29.8834 18.5632 28.8082C18.5632 27.733 18.7168 26.5906 19.024 25.381C17.68 25.0738 16.5184 24.517 15.5392 23.7106C14.56 22.9042 13.8592 21.9826 13.4368 20.9458C12.88 19.5826 12.6016 18.325 12.6016 17.173C12.6016 16.021 12.784 14.9362 13.1488 13.9186C13.5136 12.901 14.0416 11.941 14.7328 11.0386C15.4048 10.117 16.3168 9.37783 17.4688 8.82103C18.6208 8.24503 19.888 7.95703 21.2704 7.95703C23.9968 7.95703 25.8592 9.01303 26.8576 11.125C26.9728 11.3554 26.8384 11.509 26.4544 11.5858C25.9936 11.6242 25.7056 11.5186 25.5904 11.269C25.0144 9.54103 23.5648 8.67703 21.2416 8.67703ZM31.9264 12.6226C30.832 12.6226 29.7184 12.9874 28.5856 13.717C27.472 14.4274 26.4544 15.3682 25.5328 16.5394C23.5744 19.0354 22.144 21.8482 21.2416 24.9778H21.6448C25.408 24.9778 28.576 23.7778 31.1488 21.3778C32.8576 19.7842 33.904 18.0658 34.288 16.2226C34.3648 15.8194 34.4032 15.4546 34.4032 15.1282C34.4032 14.1298 34.0384 13.4098 33.3088 12.9682C32.944 12.7378 32.4832 12.6226 31.9264 12.6226ZM30.1696 26.4178C28.6144 26.4178 27.1936 27.3682 25.9072 29.269C24.64 31.1698 23.8624 33.2818 23.5744 35.605C24.0736 35.7586 24.6016 35.8354 25.1584 35.8354C27.2704 35.8354 29.0464 34.9138 30.4864 33.0706C31.6192 31.6498 32.1856 30.2482 32.1856 28.8658C32.1856 27.4834 31.6864 26.6866 30.688 26.4754C30.5344 26.437 30.3616 26.4178 30.1696 26.4178Z" fill="white"/>
</svg>
