<svg width="82" height="82" viewBox="0 0 82 82" fill="none" xmlns="http://www.w3.org/2000/svg">
<g clip-path="url(#clip0)">
<path d="M22.1773 77.3229C40.8611 88.1414 65.9727 79.2273 76.7599 60.4893C87.5472 41.7513 81.1451 17.7913 62.4613 6.97287C43.7777 -3.84547 15.2636 -2.93461 4.47658 15.8033C-6.31058 34.5413 3.4934 66.5044 22.1773 77.3229Z" fill="url(#paint0_linear)"/>
<path d="M33.0311 13.3431C30.6499 13.3431 28.5037 13.9071 26.5925 15.035C23.052 17.1656 20.9685 20.518 20.3419 25.0924C20.2479 25.813 20.2009 26.6903 20.2009 27.7242C20.2009 28.7582 20.3889 29.9174 20.7649 31.202C21.2975 33.1132 22.3471 34.8364 23.9137 36.3717C25.4489 37.9069 27.3758 38.9565 29.6943 39.5205C30.6656 35.9487 32.1381 32.6119 34.112 29.5101C36.0859 26.377 38.5767 23.7765 41.5845 21.7086C44.5923 19.6094 47.7568 18.5598 51.0779 18.5598C53.9604 18.5598 55.715 19.7191 56.3416 22.0376C56.5296 22.6329 56.6236 23.2595 56.6236 23.9175C56.6236 25.8287 55.903 27.9435 54.4617 30.2621C52.2059 33.9905 48.9161 36.826 44.5923 38.7685C41.2086 40.3038 37.5585 41.0714 33.642 41.0714H32.7021C32.0441 43.3899 31.7152 45.6301 31.7152 47.792C31.7152 51.865 32.7491 54.6849 34.817 56.2514C35.099 53.6822 35.7569 51.2697 36.7908 49.0139C37.8248 46.758 39.2504 44.8625 41.0676 43.3272C42.9161 41.792 44.9527 41.0244 47.1772 41.0244C49.7464 41.0244 51.3443 42.168 51.9709 44.4552C52.1275 45.0818 52.2059 45.7241 52.2059 46.382C52.2059 48.1053 51.6576 49.9538 50.561 51.9277C48.8377 54.9668 46.4409 57.0347 43.3704 58.1313C41.1459 58.8832 38.937 59.0086 36.7438 58.5073C36.7125 58.9146 36.6968 59.3219 36.6968 59.7292C36.6968 62.0164 37.1825 63.9434 38.1538 65.5099C39.2504 67.3586 41.0362 68.2827 43.5114 68.2827C43.4174 68.8781 42.9005 69.1755 41.9605 69.1755C39.454 69.1755 37.6055 68.1419 36.4149 66.0735C35.2556 64.0058 34.676 61.5623 34.676 58.7423C34.676 58.4289 34.676 58.1313 34.676 57.8493C31.9815 56.6901 30.1956 54.4655 29.3183 51.1757C28.8797 49.6092 28.6604 47.9486 28.6604 46.1941C28.6604 44.4395 28.911 42.5753 29.4123 40.6014C27.2191 40.1001 25.3236 39.1915 23.7257 37.8756C22.1278 36.5597 20.9842 35.0558 20.2949 33.3639C19.3863 31.1393 18.932 29.0871 18.932 27.2073C18.932 25.3274 19.2296 23.5572 19.8249 21.8966C20.4202 20.236 21.2818 18.6695 22.4098 17.1969C23.5064 15.693 24.9946 14.4867 26.8745 13.5781C28.7544 12.6382 30.8222 12.1682 33.0781 12.1682C37.5271 12.1682 40.5663 13.8914 42.1955 17.3379C42.3835 17.7139 42.1642 17.9645 41.5375 18.0898C40.7856 18.1525 40.3156 17.9802 40.1276 17.5729C39.1877 14.753 36.8222 13.3431 33.0311 13.3431ZM50.467 19.7817C48.6811 19.7817 46.8639 20.377 45.0153 21.5676C43.1981 22.7269 41.5375 24.2621 40.0336 26.1733C36.8378 30.2464 34.5037 34.8364 33.0311 39.9434H33.689C39.83 39.9434 44.9997 37.9852 49.1981 34.0688C51.9865 31.4683 53.6941 28.6642 54.3207 25.6564C54.4461 24.9984 54.5087 24.4031 54.5087 23.8705C54.5087 22.2412 53.9134 21.0663 52.7228 20.3457C52.1275 19.9697 51.3756 19.7817 50.467 19.7817ZM47.6002 42.2933C45.0623 42.2933 42.7438 43.8442 40.6446 46.946C38.5767 50.0478 37.3078 53.4943 36.8378 57.2853C37.6525 57.536 38.5141 57.6613 39.4227 57.6613C42.8691 57.6613 45.7673 56.1574 48.1171 53.1496C49.9657 50.8311 50.8899 48.5439 50.8899 46.288C50.8899 44.0322 50.0753 42.7319 48.4461 42.3873C48.1955 42.3246 47.9135 42.2933 47.6002 42.2933Z" fill="white"/>
<path d="M26.5925 15.0352L26.2814 14.5082L26.277 14.5108L26.5925 15.0352ZM20.3419 25.0925L19.7356 25.0095L19.7351 25.0134L20.3419 25.0925ZM20.7649 31.2021L21.3544 31.0378L21.3521 31.0302L20.7649 31.2021ZM23.9137 36.3718L24.3464 35.9391L24.342 35.9348L23.9137 36.3718ZM29.6943 39.5206L29.5496 40.1152L30.1285 40.256L30.2848 39.6812L29.6943 39.5206ZM34.112 29.5102L34.6283 29.8388L34.6298 29.8364L34.112 29.5102ZM41.5845 21.7087L41.9312 22.213L41.9348 22.2105L41.5845 21.7087ZM56.3416 22.0377L55.7508 22.1974L55.7542 22.2097L55.7581 22.222L56.3416 22.0377ZM54.4617 30.2622L53.942 29.9391L53.9381 29.9454L54.4617 30.2622ZM44.5923 38.7686L44.3416 38.2104L44.3395 38.2114L44.5923 38.7686ZM32.7021 41.0715V40.4596H32.2397L32.1134 40.9044L32.7021 41.0715ZM34.817 56.2515L34.4474 56.7393L35.3076 57.3909L35.4252 56.3183L34.817 56.2515ZM36.7908 49.014L36.2345 48.759L36.7908 49.014ZM41.0676 43.3274L40.6766 42.8566L40.6726 42.8599L41.0676 43.3274ZM51.9709 44.4553L52.5645 44.3069L52.5629 44.3002L52.5611 44.2936L51.9709 44.4553ZM50.561 51.9278L51.0933 52.2297L51.0959 52.225L50.561 51.9278ZM43.3704 58.1314L43.5664 58.7111L43.5713 58.7095L43.5762 58.7077L43.3704 58.1314ZM36.7438 58.5074L36.8802 57.9108L36.1881 57.7526L36.1337 58.4605L36.7438 58.5074ZM38.1538 65.5101L38.6801 65.198L38.677 65.1925L38.6738 65.1876L38.1538 65.5101ZM43.5114 68.2828L44.1159 68.3782L44.2276 67.6708H43.5114V68.2828ZM36.4149 66.0737L35.8811 66.3729L35.8846 66.379L36.4149 66.0737ZM34.676 57.8494H35.2879V57.4465L34.9178 57.2873L34.676 57.8494ZM29.3183 51.1759L29.9096 51.0182L29.9076 51.0109L29.3183 51.1759ZM29.4123 40.6015L30.0054 40.7522L30.1597 40.1447L29.5487 40.005L29.4123 40.6015ZM23.7257 37.8757L24.1147 37.4033L23.7257 37.8757ZM20.2949 33.364L20.8616 33.1331L20.8614 33.1326L20.2949 33.364ZM19.8249 21.8967L20.4009 22.1032L19.8249 21.8967ZM22.4098 17.197L22.8956 17.5691L22.9 17.5634L22.9042 17.5576L22.4098 17.197ZM26.8745 13.5782L27.1408 14.1292L27.1481 14.1256L26.8745 13.5782ZM42.1955 17.338L41.6422 17.5996L41.6451 17.6057L41.6482 17.6117L42.1955 17.338ZM41.5375 18.09L41.5883 18.6998L41.6232 18.6969L41.6575 18.69L41.5375 18.09ZM40.1276 17.573L39.5471 17.7665L39.5578 17.7987L39.572 17.8295L40.1276 17.573ZM45.0153 21.5677L45.3444 22.0837L45.3467 22.0822L45.0153 21.5677ZM40.0336 26.1734L39.5527 25.795L39.5522 25.7957L40.0336 26.1734ZM33.0311 39.9436L32.4431 39.774L32.2178 40.5555H33.0311V39.9436ZM49.1981 34.0689L48.7807 33.6214L48.7807 33.6215L49.1981 34.0689ZM54.3207 25.6565L54.9198 25.7813L54.9209 25.7761L54.9218 25.771L54.3207 25.6565ZM52.7228 20.3458L52.3961 20.8632L52.401 20.8663L52.406 20.8693L52.7228 20.3458ZM40.6446 46.9461L40.1378 46.6031L40.1354 46.6067L40.6446 46.9461ZM36.8378 57.2855L36.2306 57.2102L36.1674 57.7195L36.6579 57.8704L36.8378 57.2855ZM48.1171 53.1497L47.6387 52.7683L47.6349 52.773L48.1171 53.1497ZM48.4461 42.3874L48.2977 42.9811L48.3085 42.9838L48.3194 42.9861L48.4461 42.3874ZM33.0311 12.7313C30.5487 12.7313 28.2938 13.3206 26.2814 14.5082L26.9035 15.5622C28.7136 14.4939 30.7511 13.9552 33.0311 13.9552V12.7313ZM26.277 14.5108C22.5578 16.7489 20.3841 20.276 19.7356 25.0095L20.9481 25.1756C21.553 20.7603 23.5463 17.5825 26.908 15.5595L26.277 14.5108ZM19.7351 25.0134C19.6366 25.7686 19.589 26.674 19.589 27.7243H20.8128C20.8128 26.7068 20.8592 25.8577 20.9487 25.1716L19.7351 25.0134ZM19.589 27.7243C19.589 28.8307 19.7898 30.0491 20.1776 31.374L21.3521 31.0302C20.988 29.786 20.8128 28.6859 20.8128 27.7243H19.589ZM20.1754 31.3664C20.7398 33.3918 21.8503 35.2065 23.4854 36.8088L24.342 35.9348C22.8439 34.4666 21.8552 32.8349 21.3543 31.0378L20.1754 31.3664ZM23.481 36.8045C25.1033 38.4268 27.1333 39.5275 29.5496 40.1152L29.839 38.926C27.6183 38.3859 25.7945 37.3873 24.3464 35.9391L23.481 36.8045ZM30.2848 39.6812C31.24 36.1684 32.6877 32.8883 34.6283 29.8388L33.5957 29.1817C31.5886 32.3358 30.0911 35.7293 29.1038 39.36L30.2848 39.6812ZM34.6298 29.8364C36.56 26.7726 38.993 24.233 41.9312 22.213L41.2379 21.2045C38.1605 23.3202 35.6118 25.9816 33.5943 29.1841L34.6298 29.8364ZM41.9348 22.2105C44.8511 20.1752 47.8951 19.1719 51.0779 19.1719V17.948C47.6185 17.948 44.3336 19.0439 41.2343 21.2069L41.9348 22.2105ZM51.0779 19.1719C52.4423 19.1719 53.4719 19.4468 54.2184 19.9399C54.9536 20.4257 55.4706 21.1602 55.7508 22.1974L56.9324 21.8781C56.586 20.5967 55.9124 19.5923 54.8931 18.9188C53.8849 18.2527 52.596 17.948 51.0779 17.948V19.1719ZM55.7581 22.222C55.9262 22.7545 56.0116 23.3187 56.0116 23.9176H57.2355C57.2355 23.2005 57.133 22.5115 56.9252 21.8535L55.7581 22.222ZM56.0116 23.9176C56.0116 25.6757 55.3475 27.6781 53.942 29.9391L54.9814 30.5852C56.4584 28.2092 57.2355 25.9819 57.2355 23.9176H56.0116ZM53.9381 29.9454C51.7523 33.5582 48.5624 36.3142 44.3416 38.2104L44.8431 39.3269C49.2698 37.3381 52.6594 34.4231 54.9853 30.579L53.9381 29.9454ZM44.3395 38.2114C41.0394 39.7087 37.476 40.4596 33.642 40.4596V41.6834C37.6409 41.6834 41.3777 40.8991 44.8452 39.3259L44.3395 38.2114ZM33.642 40.4596H32.7021V41.6834H33.642V40.4596ZM32.1134 40.9044C31.4418 43.2712 31.1032 45.5677 31.1032 47.7921H32.3271C32.3271 45.6928 32.6465 43.5089 33.2908 41.2386L32.1134 40.9044ZM31.1032 47.7921C31.1032 51.9459 32.1561 55.0034 34.4474 56.7393L35.1865 55.7638C33.3421 54.3665 32.3271 51.7844 32.3271 47.7921H31.1032ZM35.4252 56.3183C35.7004 53.8115 36.3416 51.4628 37.3472 49.269L36.2345 48.759C35.1722 51.0769 34.4975 53.5533 34.2087 56.1848L35.4252 56.3183ZM37.3472 49.269C38.3452 47.0913 39.717 45.2694 41.4625 43.7948L40.6726 42.8599C38.7837 44.4558 37.3043 46.4249 36.2345 48.759L37.3472 49.269ZM41.4585 43.7981C43.2067 42.3462 45.1073 41.6364 47.1772 41.6364V40.4126C44.798 40.4126 42.6255 41.238 40.6766 42.8566L41.4585 43.7981ZM47.1772 41.6364C48.3731 41.6364 49.2791 41.9023 49.9463 42.3798C50.6087 42.8538 51.0965 43.5798 51.3807 44.617L52.5611 44.2936C52.2186 43.0435 51.5942 42.0542 50.6586 41.3846C49.728 40.7185 48.5504 40.4126 47.1772 40.4126V41.6364ZM51.3772 44.6037C51.5215 45.1809 51.5939 45.7733 51.5939 46.3822H52.8178C52.8178 45.6751 52.7335 44.983 52.5645 44.3069L51.3772 44.6037ZM51.5939 46.3822C51.5939 47.9741 51.0873 49.7203 50.026 51.6307L51.0959 52.225C52.2278 50.1876 52.8178 48.2367 52.8178 46.3822H51.5939ZM50.0286 51.626C48.3722 54.5473 46.0865 56.5116 43.1646 57.5552L43.5762 58.7077C46.7953 57.558 49.3032 55.3866 51.0933 52.2296L50.0286 51.626ZM43.1745 57.5517C41.0521 58.2691 38.9583 58.3858 36.8802 57.9108L36.6075 59.104C38.9158 59.6316 41.2397 59.4976 43.5664 58.7111L43.1745 57.5517ZM36.1337 58.4605C36.1012 58.8833 36.0849 59.3063 36.0849 59.7293H37.3088C37.3088 59.3377 37.3238 58.9461 37.354 58.5543L36.1337 58.4605ZM36.0849 59.7293C36.0849 62.1028 36.5894 64.1479 37.6337 65.8326L38.6738 65.1876C37.7756 63.7385 37.3088 61.9302 37.3088 59.7293H36.0849ZM37.6274 65.8222C38.8528 67.8875 40.8591 68.8947 43.5114 68.8947V67.6708C41.2133 67.6708 39.6479 66.8294 38.6801 65.198L37.6274 65.8222ZM42.9069 68.1873C42.8885 68.3042 42.8441 68.3666 42.7478 68.4223C42.621 68.4951 42.3793 68.5637 41.9605 68.5637V69.7875C42.4816 69.7875 42.9684 69.7074 43.3586 69.4828C43.7793 69.2405 44.0404 68.8562 44.1159 68.3782L42.9069 68.1873ZM41.9605 68.5637C39.6593 68.5637 38.0199 67.6353 36.9452 65.7683L35.8846 66.379C37.1909 68.6481 39.2487 69.7875 41.9605 69.7875V68.5637ZM36.9487 65.7744C35.8496 63.8144 35.2879 61.4774 35.2879 58.7424H34.064C34.064 61.6469 34.6617 64.1981 35.8811 66.3729L36.9487 65.7744ZM35.2879 58.7424C35.2879 58.7418 35.2879 58.7412 35.2879 58.7405C35.2879 58.7399 35.2879 58.7393 35.2879 58.7387C35.2879 58.7381 35.2879 58.7375 35.2879 58.7369C35.2879 58.7363 35.2879 58.7357 35.2879 58.735C35.2879 58.7344 35.2879 58.7338 35.2879 58.7332C35.2879 58.7326 35.2879 58.732 35.2879 58.7314C35.2879 58.7308 35.2879 58.7301 35.2879 58.7295C35.2879 58.7289 35.2879 58.7283 35.2879 58.7277C35.2879 58.7271 35.2879 58.7265 35.2879 58.7259C35.2879 58.7252 35.2879 58.7246 35.2879 58.724C35.2879 58.7234 35.2879 58.7228 35.2879 58.7222C35.2879 58.7216 35.2879 58.721 35.2879 58.7204C35.2879 58.7197 35.2879 58.7191 35.2879 58.7185C35.2879 58.718 35.2879 58.7173 35.2879 58.7167C35.2879 58.7161 35.2879 58.7155 35.2879 58.7149C35.2879 58.7143 35.2879 58.7137 35.2879 58.7131C35.2879 58.7125 35.2879 58.7118 35.2879 58.7112C35.2879 58.7106 35.2879 58.71 35.2879 58.7094C35.2879 58.7088 35.2879 58.7082 35.2879 58.7076C35.2879 58.7069 35.2879 58.7063 35.2879 58.7057C35.2879 58.7051 35.2879 58.7045 35.2879 58.7039C35.2879 58.7033 35.2879 58.7027 35.2879 58.702C35.2879 58.7014 35.2879 58.7009 35.2879 58.7003C35.2879 58.6997 35.2879 58.6991 35.2879 58.6984C35.2879 58.6978 35.2879 58.6972 35.2879 58.6966C35.2879 58.696 35.2879 58.6954 35.2879 58.6948C35.2879 58.6942 35.2879 58.6935 35.2879 58.6929C35.2879 58.6923 35.2879 58.6917 35.2879 58.6911C35.2879 58.6905 35.2879 58.6899 35.2879 58.6893C35.2879 58.6887 35.2879 58.6881 35.2879 58.6875C35.2879 58.6869 35.2879 58.6863 35.2879 58.6857C35.2879 58.685 35.2879 58.6844 35.2879 58.6838C35.2879 58.6832 35.2879 58.6826 35.2879 58.682C35.2879 58.6814 35.2879 58.6808 35.2879 58.6801C35.2879 58.6795 35.2879 58.679 35.2879 58.6784C35.2879 58.6778 35.2879 58.6772 35.2879 58.6765C35.2879 58.6759 35.2879 58.6753 35.2879 58.6747C35.2879 58.6741 35.2879 58.6735 35.2879 58.6729C35.2879 58.6722 35.2879 58.6716 35.2879 58.671C35.2879 58.6705 35.2879 58.6699 35.2879 58.6693C35.2879 58.6686 35.2879 58.668 35.2879 58.6674C35.2879 58.6668 35.2879 58.6662 35.2879 58.6656C35.2879 58.665 35.2879 58.6644 35.2879 58.6637C35.2879 58.6632 35.2879 58.6626 35.2879 58.662C35.2879 58.6614 35.2879 58.6607 35.2879 58.6601C35.2879 58.6595 35.2879 58.6589 35.2879 58.6583C35.2879 58.6577 35.2879 58.6571 35.2879 58.6565C35.2879 58.6559 35.2879 58.6553 35.2879 58.6547C35.2879 58.6541 35.2879 58.6535 35.2879 58.6528C35.2879 58.6522 35.2879 58.6516 35.2879 58.651C35.2879 58.6504 35.2879 58.6499 35.2879 58.6492C35.2879 58.6486 35.2879 58.648 35.2879 58.6474C35.2879 58.6468 35.2879 58.6462 35.2879 58.6456C35.2879 58.645 35.2879 58.6443 35.2879 58.6438C35.2879 58.6432 35.2879 58.6426 35.2879 58.642C35.2879 58.6414 35.2879 58.6407 35.2879 58.6401C35.2879 58.6395 35.2879 58.6389 35.2879 58.6383C35.2879 58.6377 35.2879 58.6371 35.2879 58.6365C35.2879 58.6359 35.2879 58.6353 35.2879 58.6347C35.2879 58.6341 35.2879 58.6335 35.2879 58.6329C35.2879 58.6323 35.2879 58.6317 35.2879 58.6311C35.2879 58.6305 35.2879 58.6298 35.2879 58.6292C35.2879 58.6286 35.2879 58.6281 35.2879 58.6275C35.2879 58.6268 35.2879 58.6262 35.2879 58.6256C35.2879 58.625 35.2879 58.6244 35.2879 58.6238C35.2879 58.6232 35.2879 58.6226 35.2879 58.622C35.2879 58.6214 35.2879 58.6208 35.2879 58.6202C35.2879 58.6196 35.2879 58.619 35.2879 58.6184C35.2879 58.6178 35.2879 58.6172 35.2879 58.6166C35.2879 58.616 35.2879 58.6153 35.2879 58.6147C35.2879 58.6141 35.2879 58.6136 35.2879 58.613C35.2879 58.6123 35.2879 58.6117 35.2879 58.6111C35.2879 58.6105 35.2879 58.6099 35.2879 58.6093C35.2879 58.6087 35.2879 58.6081 35.2879 58.6075C35.2879 58.6069 35.2879 58.6063 35.2879 58.6057C35.2879 58.6051 35.2879 58.6045 35.2879 58.6039C35.2879 58.6033 35.2879 58.6027 35.2879 58.6021C35.2879 58.6015 35.2879 58.6009 35.2879 58.6003C35.2879 58.5997 35.2879 58.5991 35.2879 58.5984C35.2879 58.5978 35.2879 58.5973 35.2879 58.5967C35.2879 58.5961 35.2879 58.5955 35.2879 58.5948C35.2879 58.5942 35.2879 58.5937 35.2879 58.5931C35.2879 58.5925 35.2879 58.5918 35.2879 58.5912C35.2879 58.5906 35.2879 58.5901 35.2879 58.5895C35.2879 58.5888 35.2879 58.5882 35.2879 58.5876C35.2879 58.587 35.2879 58.5864 35.2879 58.5858C35.2879 58.5852 35.2879 58.5846 35.2879 58.584C35.2879 58.5834 35.2879 58.5829 35.2879 58.5822C35.2879 58.5816 35.2879 58.581 35.2879 58.5804C35.2879 58.5798 35.2879 58.5792 35.2879 58.5786C35.2879 58.578 35.2879 58.5774 35.2879 58.5768C35.2879 58.5762 35.2879 58.5756 35.2879 58.575C35.2879 58.5744 35.2879 58.5738 35.2879 58.5732C35.2879 58.5726 35.2879 58.572 35.2879 58.5714C35.2879 58.5708 35.2879 58.5702 35.2879 58.5696C35.2879 58.569 35.2879 58.5684 35.2879 58.5678C35.2879 58.5672 35.2879 58.5666 35.2879 58.566C35.2879 58.5654 35.2879 58.5648 35.2879 58.5642C35.2879 58.5636 35.2879 58.563 35.2879 58.5624C35.2879 58.5618 35.2879 58.5612 35.2879 58.5606C35.2879 58.56 35.2879 58.5594 35.2879 58.5588C35.2879 58.5582 35.2879 58.5576 35.2879 58.557C35.2879 58.5564 35.2879 58.5558 35.2879 58.5552C35.2879 58.5546 35.2879 58.554 35.2879 58.5534C35.2879 58.5528 35.2879 58.5522 35.2879 58.5516C35.2879 58.551 35.2879 58.5504 35.2879 58.5498C35.2879 58.5492 35.2879 58.5486 35.2879 58.548C35.2879 58.5474 35.2879 58.5468 35.2879 58.5462C35.2879 58.5456 35.2879 58.545 35.2879 58.5444C35.2879 58.5438 35.2879 58.5432 35.2879 58.5426C35.2879 58.542 35.2879 58.5414 35.2879 58.5408C35.2879 58.5402 35.2879 58.5396 35.2879 58.539C35.2879 58.5384 35.2879 58.5378 35.2879 58.5372C35.2879 58.5366 35.2879 58.536 35.2879 58.5354C35.2879 58.5348 35.2879 58.5343 35.2879 58.5336C35.2879 58.533 35.2879 58.5324 35.2879 58.5318C35.2879 58.5313 35.2879 58.5306 35.2879 58.53C35.2879 58.5294 35.2879 58.5289 35.2879 58.5283C35.2879 58.5276 35.2879 58.527 35.2879 58.5264C35.2879 58.5259 35.2879 58.5253 35.2879 58.5247C35.2879 58.524 35.2879 58.5235 35.2879 58.5229C35.2879 58.5223 35.2879 58.5217 35.2879 58.5211C35.2879 58.5205 35.2879 58.5199 35.2879 58.5193C35.2879 58.5187 35.2879 58.5181 35.2879 58.5175C35.2879 58.5169 35.2879 58.5163 35.2879 58.5157C35.2879 58.5151 35.2879 58.5145 35.2879 58.5139C35.2879 58.5133 35.2879 58.5127 35.2879 58.5121C35.2879 58.5116 35.2879 58.5109 35.2879 58.5103C35.2879 58.5097 35.2879 58.5092 35.2879 58.5086C35.2879 58.5079 35.2879 58.5073 35.2879 58.5068C35.2879 58.5062 35.2879 58.5056 35.2879 58.5049C35.2879 58.5044 35.2879 58.5038 35.2879 58.5032C35.2879 58.5026 35.2879 58.502 35.2879 58.5014C35.2879 58.5008 35.2879 58.5002 35.2879 58.4996C35.2879 58.499 35.2879 58.4984 35.2879 58.4978C35.2879 58.4972 35.2879 58.4966 35.2879 58.496C35.2879 58.4954 35.2879 58.4948 35.2879 58.4942C35.2879 58.4936 35.2879 58.4931 35.2879 58.4925C35.2879 58.4918 35.2879 58.4912 35.2879 58.4907C35.2879 58.4901 35.2879 58.4895 35.2879 58.4889C35.2879 58.4883 35.2879 58.4877 35.2879 58.4871C35.2879 58.4865 35.2879 58.4859 35.2879 58.4853C35.2879 58.4847 35.2879 58.4841 35.2879 58.4835C35.2879 58.4829 35.2879 58.4823 35.2879 58.4818C35.2879 58.4811 35.2879 58.4805 35.2879 58.48C35.2879 58.4794 35.2879 58.4788 35.2879 58.4781C35.2879 58.4776 35.2879 58.477 35.2879 58.4764C35.2879 58.4758 35.2879 58.4752 35.2879 58.4746C35.2879 58.474 35.2879 58.4734 35.2879 58.4728C35.2879 58.4722 35.2879 58.4717 35.2879 58.471C35.2879 58.4704 35.2879 58.4699 35.2879 58.4693C35.2879 58.4687 35.2879 58.4681 35.2879 58.4675C35.2879 58.4669 35.2879 58.4663 35.2879 58.4657C35.2879 58.4651 35.2879 58.4645 35.2879 58.4639C35.2879 58.4633 35.2879 58.4627 35.2879 58.4621C35.2879 58.4616 35.2879 58.461 35.2879 58.4603C35.2879 58.4598 35.2879 58.4592 35.2879 58.4586C35.2879 58.458 35.2879 58.4574 35.2879 58.4568C35.2879 58.4562 35.2879 58.4556 35.2879 58.455C35.2879 58.4544 35.2879 58.4539 35.2879 58.4532C35.2879 58.4526 35.2879 58.4521 35.2879 58.4515C35.2879 58.4509 35.2879 58.4503 35.2879 58.4497C35.2879 58.4491 35.2879 58.4485 35.2879 58.4479C35.2879 58.4473 35.2879 58.4467 35.2879 58.4461C35.2879 58.4455 35.2879 58.4449 35.2879 58.4444C35.2879 58.4438 35.2879 58.4431 35.2879 58.4426C35.2879 58.442 35.2879 58.4414 35.2879 58.4408C35.2879 58.4402 35.2879 58.4396 35.2879 58.439C35.2879 58.4384 35.2879 58.4378 35.2879 58.4373C35.2879 58.4367 35.2879 58.436 35.2879 58.4355C35.2879 58.4349 35.2879 58.4343 35.2879 58.4337C35.2879 58.4331 35.2879 58.4325 35.2879 58.4319C35.2879 58.4313 35.2879 58.4307 35.2879 58.4302C35.2879 58.4296 35.2879 58.4289 35.2879 58.4284C35.2879 58.4278 35.2879 58.4272 35.2879 58.4266C35.2879 58.426 35.2879 58.4254 35.2879 58.4248C35.2879 58.4242 35.2879 58.4236 35.2879 58.4231C35.2879 58.4225 35.2879 58.4219 35.2879 58.4213C35.2879 58.4207 35.2879 58.4201 35.2879 58.4195C35.2879 58.4189 35.2879 58.4184 35.2879 58.4177C35.2879 58.4171 35.2879 58.4166 35.2879 58.416C35.2879 58.4154 35.2879 58.4148 35.2879 58.4142C35.2879 58.4136 35.2879 58.413 35.2879 58.4124C35.2879 58.4118 35.2879 58.4113 35.2879 58.4106C35.2879 58.4101 35.2879 58.4095 35.2879 58.4089C35.2879 58.4083 35.2879 58.4077 35.2879 58.4071C35.2879 58.4065 35.2879 58.4059 35.2879 58.4053C35.2879 58.4048 35.2879 58.4042 35.2879 58.4036C35.2879 58.403 35.2879 58.4024 35.2879 58.4018C35.2879 58.4012 35.2879 58.4006 35.2879 58.4001C35.2879 58.3994 35.2879 58.3989 35.2879 58.3983C35.2879 58.3977 35.2879 58.3971 35.2879 58.3965C35.2879 58.3959 35.2879 58.3953 35.2879 58.3947C35.2879 58.3942 35.2879 58.3936 35.2879 58.393C35.2879 58.3924 35.2879 58.3918 35.2879 58.3912C35.2879 58.3906 35.2879 58.39 35.2879 58.3895C35.2879 58.3889 35.2879 58.3883 35.2879 58.3877C35.2879 58.3871 35.2879 58.3865 35.2879 58.3859C35.2879 58.3853 35.2879 58.3848 35.2879 58.3842C35.2879 58.3835 35.2879 58.383 35.2879 58.3824C35.2879 58.3818 35.2879 58.3812 35.2879 58.3806C35.2879 58.38 35.2879 58.3794 35.2879 58.3789C35.2879 58.3783 35.2879 58.3777 35.2879 58.3771C35.2879 58.3765 35.2879 58.376 35.2879 58.3753C35.2879 58.3747 35.2879 58.3742 35.2879 58.3736C35.2879 58.373 35.2879 58.3724 35.2879 58.3718C35.2879 58.3712 35.2879 58.3706 35.2879 58.3701C35.2879 58.3695 35.2879 58.3689 35.2879 58.3683C35.2879 58.3677 35.2879 58.3671 35.2879 58.3665C35.2879 58.3659 35.2879 58.3654 35.2879 58.3648C35.2879 58.3642 35.2879 58.3636 35.2879 58.363C35.2879 58.3624 35.2879 58.3618 35.2879 58.3613C35.2879 58.3606 35.2879 58.3601 35.2879 58.3595C35.2879 58.3589 35.2879 58.3583 35.2879 58.3577C35.2879 58.3572 35.2879 58.3565 35.2879 58.3559C35.2879 58.3554 35.2879 58.3548 35.2879 58.3542C35.2879 58.3536 35.2879 58.3531 35.2879 58.3525C35.2879 58.3518 35.2879 58.3513 35.2879 58.3507C35.2879 58.3501 35.2879 58.3495 35.2879 58.349C35.2879 58.3484 35.2879 58.3477 35.2879 58.3472C35.2879 58.3466 35.2879 58.346 35.2879 58.3454C35.2879 58.3449 35.2879 58.3443 35.2879 58.3436C35.2879 58.3431 35.2879 58.3425 35.2879 58.3419C35.2879 58.3413 35.2879 58.3408 35.2879 58.3402C35.2879 58.3395 35.2879 58.339 35.2879 58.3384C35.2879 58.3378 35.2879 58.3372 35.2879 58.3367C35.2879 58.3361 35.2879 58.3355 35.2879 58.3349C35.2879 58.3343 35.2879 58.3337 35.2879 58.3331C35.2879 58.3326 35.2879 58.3319 35.2879 58.3314C35.2879 58.3308 35.2879 58.3302 35.2879 58.3296C35.2879 58.329 35.2879 58.3285 35.2879 58.3279C35.2879 58.3273 35.2879 58.3267 35.2879 58.3261C35.2879 58.3255 35.2879 58.325 35.2879 58.3244C35.2879 58.3238 35.2879 58.3232 35.2879 58.3226C35.2879 58.322 35.2879 58.3214 35.2879 58.3209C35.2879 58.3203 35.2879 58.3197 35.2879 58.3191C35.2879 58.3186 35.2879 58.3179 35.2879 58.3174C35.2879 58.3168 35.2879 58.3162 35.2879 58.3156C35.2879 58.315 35.2879 58.3144 35.2879 58.3138C35.2879 58.3133 35.2879 58.3127 35.2879 58.3121C35.2879 58.3115 35.2879 58.311 35.2879 58.3104C35.2879 58.3098 35.2879 58.3092 35.2879 58.3086C35.2879 58.308 35.2879 58.3075 35.2879 58.3069C35.2879 58.3062 35.2879 58.3057 35.2879 58.3051C35.2879 58.3045 35.2879 58.3039 35.2879 58.3034C35.2879 58.3028 35.2879 58.3022 35.2879 58.3016C35.2879 58.3011 35.2879 58.3004 35.2879 58.2999C35.2879 58.2993 35.2879 58.2987 35.2879 58.2981C35.2879 58.2976 35.2879 58.297 35.2879 58.2964C35.2879 58.2958 35.2879 58.2952 35.2879 58.2946C35.2879 58.2941 35.2879 58.2935 35.2879 58.2929C35.2879 58.2923 35.2879 58.2917 35.2879 58.2911C35.2879 58.2906 35.2879 58.29 35.2879 58.2894C35.2879 58.2888 35.2879 58.2883 35.2879 58.2877C35.2879 58.2871 35.2879 58.2865 35.2879 58.2859C35.2879 58.2853 35.2879 58.2847 35.2879 58.2842C35.2879 58.2835 35.2879 58.283 35.2879 58.2824C35.2879 58.2818 35.2879 58.2813 35.2879 58.2807C35.2879 58.2801 35.2879 58.2795 35.2879 58.279C35.2879 58.2783 35.2879 58.2778 35.2879 58.2772C35.2879 58.2766 35.2879 58.276 35.2879 58.2755C35.2879 58.2749 35.2879 58.2743 35.2879 58.2737C35.2879 58.2731 35.2879 58.2725 35.2879 58.272C35.2879 58.2714 35.2879 58.2708 35.2879 58.2702C35.2879 58.2697 35.2879 58.269 35.2879 58.2685C35.2879 58.2679 35.2879 58.2673 35.2879 58.2667C35.2879 58.2662 35.2879 58.2656 35.2879 58.265C35.2879 58.2644 35.2879 58.2638 35.2879 58.2632C35.2879 58.2627 35.2879 58.2621 35.2879 58.2615C35.2879 58.261 35.2879 58.2604 35.2879 58.2598C35.2879 58.2592 35.2879 58.2586 35.2879 58.258C35.2879 58.2575 35.2879 58.2569 35.2879 58.2563C35.2879 58.2557 35.2879 58.2552 35.2879 58.2545C35.2879 58.254 35.2879 58.2534 35.2879 58.2528C35.2879 58.2522 35.2879 58.2517 35.2879 58.2511C35.2879 58.2505 35.2879 58.25 35.2879 58.2493C35.2879 58.2488 35.2879 58.2482 35.2879 58.2476C35.2879 58.247 35.2879 58.2465 35.2879 58.2458C35.2879 58.2453 35.2879 58.2448 35.2879 58.2441C35.2879 58.2436 35.2879 58.243 35.2879 58.2424C35.2879 58.2418 35.2879 58.2413 35.2879 58.2406C35.2879 58.2401 35.2879 58.2395 35.2879 58.2389C35.2879 58.2384 35.2879 58.2378 35.2879 58.2372C35.2879 58.2366 35.2879 58.2361 35.2879 58.2354C35.2879 58.2349 35.2879 58.2343 35.2879 58.2337C35.2879 58.2332 35.2879 58.2326 35.2879 58.232C35.2879 58.2314 35.2879 58.2309 35.2879 58.2302C35.2879 58.2297 35.2879 58.2291 35.2879 58.2285C35.2879 58.228 35.2879 58.2274 35.2879 58.2268C35.2879 58.2262 35.2879 58.2257 35.2879 58.225C35.2879 58.2245 35.2879 58.2239 35.2879 58.2233C35.2879 58.2228 35.2879 58.2222 35.2879 58.2216C35.2879 58.221 35.2879 58.2205 35.2879 58.2199C35.2879 58.2193 35.2879 58.2187 35.2879 58.2181C35.2879 58.2176 35.2879 58.217 35.2879 58.2164C35.2879 58.2159 35.2879 58.2153 35.2879 58.2147C35.2879 58.2141 35.2879 58.2135 35.2879 58.2129C35.2879 58.2124 35.2879 58.2118 35.2879 58.2112C35.2879 58.2107 35.2879 58.2101 35.2879 58.2095C35.2879 58.209 35.2879 58.2083 35.2879 58.2078C35.2879 58.2072 35.2879 58.2066 35.2879 58.206C35.2879 58.2055 35.2879 58.2049 35.2879 58.2043C35.2879 58.2038 35.2879 58.2031 35.2879 58.2026C35.2879 58.202 35.2879 58.2014 35.2879 58.2009C35.2879 58.2003 35.2879 58.1997 35.2879 58.1992C35.2879 58.1985 35.2879 58.198 35.2879 58.1974C35.2879 58.1968 35.2879 58.1963 35.2879 58.1957C35.2879 58.1951 35.2879 58.1945 35.2879 58.194C35.2879 58.1934 35.2879 58.1928 35.2879 58.1922C35.2879 58.1916 35.2879 58.1911 35.2879 58.1905C35.2879 58.1899 35.2879 58.1894 35.2879 58.1888C35.2879 58.1882 35.2879 58.1877 35.2879 58.187C35.2879 58.1865 35.2879 58.1859 35.2879 58.1853C35.2879 58.1848 35.2879 58.1842 35.2879 58.1836C35.2879 58.183 35.2879 58.1825 35.2879 58.1819C35.2879 58.1813 35.2879 58.1807 35.2879 58.1802C35.2879 58.1796 35.2879 58.179 35.2879 58.1784C35.2879 58.1779 35.2879 58.1773 35.2879 58.1767C35.2879 58.1762 35.2879 58.1756 35.2879 58.175C35.2879 58.1744 35.2879 58.1738 35.2879 58.1733C35.2879 58.1727 35.2879 58.1721 35.2879 58.1716C35.2879 58.171 35.2879 58.1704 35.2879 58.1699C35.2879 58.1692 35.2879 58.1687 35.2879 58.1681C35.2879 58.1675 35.2879 58.167 35.2879 58.1664C35.2879 58.1658 35.2879 58.1653 35.2879 58.1646C35.2879 58.1641 35.2879 58.1635 35.2879 58.1629C35.2879 58.1624 35.2879 58.1618 35.2879 58.1612C35.2879 58.1607 35.2879 58.1601 35.2879 58.1595C35.2879 58.159 35.2879 58.1583 35.2879 58.1578C35.2879 58.1572 35.2879 58.1566 35.2879 58.1561C35.2879 58.1555 35.2879 58.1549 35.2879 58.1544C35.2879 58.1538 35.2879 58.1532 35.2879 58.1527C35.2879 58.1521 35.2879 58.1515 35.2879 58.1509C35.2879 58.1504 35.2879 58.1498 35.2879 58.1492C35.2879 58.1486 35.2879 58.1481 35.2879 58.1475C35.2879 58.1469 35.2879 58.1463 35.2879 58.1458C35.2879 58.1452 35.2879 58.1446 35.2879 58.1441C35.2879 58.1435 35.2879 58.1429 35.2879 58.1424C35.2879 58.1418 35.2879 58.1412 35.2879 58.1407C35.2879 58.14 35.2879 58.1395 35.2879 58.1389C35.2879 58.1383 35.2879 58.1378 35.2879 58.1372C35.2879 58.1366 35.2879 58.1361 35.2879 58.1355C35.2879 58.1349 35.2879 58.1344 35.2879 58.1338C35.2879 58.1332 35.2879 58.1326 35.2879 58.1321C35.2879 58.1315 35.2879 58.1309 35.2879 58.1304C35.2879 58.1298 35.2879 58.1292 35.2879 58.1287C35.2879 58.1281 35.2879 58.1275 35.2879 58.127C35.2879 58.1263 35.2879 58.1258 35.2879 58.1252C35.2879 58.1246 35.2879 58.1241 35.2879 58.1235C35.2879 58.123 35.2879 58.1224 35.2879 58.1218C35.2879 58.1213 35.2879 58.1207 35.2879 58.1201C35.2879 58.1195 35.2879 58.1189 35.2879 58.1184C35.2879 58.1178 35.2879 58.1172 35.2879 58.1167C35.2879 58.1161 35.2879 58.1155 35.2879 58.115C35.2879 58.1144 35.2879 58.1139 35.2879 58.1132C35.2879 58.1127 35.2879 58.1121 35.2879 58.1115C35.2879 58.111 35.2879 58.1104 35.2879 58.1098C35.2879 58.1093 35.2879 58.1087 35.2879 58.1081C35.2879 58.1076 35.2879 58.107 35.2879 58.1064C35.2879 58.1058 35.2879 58.1053 35.2879 58.1047C35.2879 58.1041 35.2879 58.1036 35.2879 58.103C35.2879 58.1025 35.2879 58.1019 35.2879 58.1013C35.2879 58.1008 35.2879 58.1001 35.2879 58.0996C35.2879 58.099 35.2879 58.0984 35.2879 58.0979C35.2879 58.0973 35.2879 58.0968 35.2879 58.0962C35.2879 58.0956 35.2879 58.0951 35.2879 58.0945C35.2879 58.0939 35.2879 58.0934 35.2879 58.0928C35.2879 58.0922 35.2879 58.0916 35.2879 58.0911C35.2879 58.0905 35.2879 58.0899 35.2879 58.0894C35.2879 58.0888 35.2879 58.0882 35.2879 58.0877C35.2879 58.0871 35.2879 58.0866 35.2879 58.086C35.2879 58.0854 35.2879 58.0848 35.2879 58.0842C35.2879 58.0837 35.2879 58.0831 35.2879 58.0826C35.2879 58.082 35.2879 58.0814 35.2879 58.0809C35.2879 58.0803 35.2879 58.0797 35.2879 58.0792C35.2879 58.0786 35.2879 58.078 35.2879 58.0774C35.2879 58.0769 35.2879 58.0763 35.2879 58.0757C35.2879 58.0752 35.2879 58.0746 35.2879 58.0741C35.2879 58.0735 35.2879 58.0729 35.2879 58.0724C35.2879 58.0718 35.2879 58.0712 35.2879 58.0706C35.2879 58.0701 35.2879 58.0696 35.2879 58.0689C35.2879 58.0684 35.2879 58.0678 35.2879 58.0673C35.2879 58.0667 35.2879 58.0661 35.2879 58.0656C35.2879 58.065 35.2879 58.0644 35.2879 58.0639C35.2879 58.0633 35.2879 58.0628 35.2879 58.0622C35.2879 58.0616 35.2879 58.0611 35.2879 58.0605C35.2879 58.0599 35.2879 58.0593 35.2879 58.0588C35.2879 58.0582 35.2879 58.0576 35.2879 58.0571C35.2879 58.0565 35.2879 58.056 35.2879 58.0554C35.2879 58.0548 35.2879 58.0543 35.2879 58.0537C35.2879 58.0531 35.2879 58.0525 35.2879 58.052C35.2879 58.0514 35.2879 58.0508 35.2879 58.0503C35.2879 58.0497 35.2879 58.0492 35.2879 58.0486C35.2879 58.048 35.2879 58.0475 35.2879 58.0469C35.2879 58.0464 35.2879 58.0457 35.2879 58.0452C35.2879 58.0446 35.2879 58.0441 35.2879 58.0435C35.2879 58.0429 35.2879 58.0424 35.2879 58.0418C35.2879 58.0413 35.2879 58.0407 35.2879 58.0401C35.2879 58.0396 35.2879 58.039 35.2879 58.0384C35.2879 58.0379 35.2879 58.0373 35.2879 58.0368C35.2879 58.0362 35.2879 58.0356 35.2879 58.035C35.2879 58.0345 35.2879 58.0339 35.2879 58.0333C35.2879 58.0328 35.2879 58.0322 35.2879 58.0317C35.2879 58.0311 35.2879 58.0305 35.2879 58.03C35.2879 58.0294 35.2879 58.0289 35.2879 58.0283C35.2879 58.0277 35.2879 58.0271 35.2879 58.0266C35.2879 58.026 35.2879 58.0255 35.2879 58.0249C35.2879 58.0243 35.2879 58.0238 35.2879 58.0232C35.2879 58.0226 35.2879 58.0221 35.2879 58.0215C35.2879 58.021 35.2879 58.0204 35.2879 58.0198C35.2879 58.0192 35.2879 58.0187 35.2879 58.0181C35.2879 58.0176 35.2879 58.017 35.2879 58.0164C35.2879 58.0159 35.2879 58.0153 35.2879 58.0148C35.2879 58.0142 35.2879 58.0136 35.2879 58.0131C35.2879 58.0125 35.2879 58.012 35.2879 58.0114C35.2879 58.0108 35.2879 58.0103 35.2879 58.0097C35.2879 58.0092 35.2879 58.0086 35.2879 58.008C35.2879 58.0074 35.2879 58.0069 35.2879 58.0063C35.2879 58.0058 35.2879 58.0052 35.2879 58.0046C35.2879 58.0041 35.2879 58.0035 35.2879 58.003C35.2879 58.0024 35.2879 58.0018 35.2879 58.0013C35.2879 58.0007 35.2879 58.0002 35.2879 57.9996C35.2879 57.9991 35.2879 57.9984 35.2879 57.9979C35.2879 57.9973 35.2879 57.9968 35.2879 57.9962C35.2879 57.9957 35.2879 57.9951 35.2879 57.9945C35.2879 57.994 35.2879 57.9934 35.2879 57.9929C35.2879 57.9923 35.2879 57.9917 35.2879 57.9912C35.2879 57.9906 35.2879 57.9901 35.2879 57.9895C35.2879 57.989 35.2879 57.9883 35.2879 57.9878C35.2879 57.9872 35.2879 57.9867 35.2879 57.9861C35.2879 57.9856 35.2879 57.985 35.2879 57.9844C35.2879 57.9839 35.2879 57.9833 35.2879 57.9828C35.2879 57.9822 35.2879 57.9816 35.2879 57.9811C35.2879 57.9805 35.2879 57.98 35.2879 57.9794C35.2879 57.9789 35.2879 57.9783 35.2879 57.9777C35.2879 57.9772 35.2879 57.9766 35.2879 57.9761C35.2879 57.9755 35.2879 57.9749 35.2879 57.9743C35.2879 57.9738 35.2879 57.9732 35.2879 57.9727C35.2879 57.9721 35.2879 57.9716 35.2879 57.971C35.2879 57.9704 35.2879 57.9699 35.2879 57.9693C35.2879 57.9688 35.2879 57.9682 35.2879 57.9677C35.2879 57.9671 35.2879 57.9665 35.2879 57.9659C35.2879 57.9654 35.2879 57.9648 35.2879 57.9643C35.2879 57.9637 35.2879 57.9632 35.2879 57.9626C35.2879 57.962 35.2879 57.9615 35.2879 57.9609C35.2879 57.9604 35.2879 57.9598 35.2879 57.9593C35.2879 57.9587 35.2879 57.9582 35.2879 57.9576C35.2879 57.957 35.2879 57.9565 35.2879 57.9559C35.2879 57.9554 35.2879 57.9548 35.2879 57.9543C35.2879 57.9537 35.2879 57.9531 35.2879 57.9525C35.2879 57.952 35.2879 57.9514 35.2879 57.9509C35.2879 57.9503 35.2879 57.9498 35.2879 57.9492C35.2879 57.9486 35.2879 57.9481 35.2879 57.9475C35.2879 57.947 35.2879 57.9464 35.2879 57.9459C35.2879 57.9453 35.2879 57.9448 35.2879 57.9442C35.2879 57.9436 35.2879 57.9431 35.2879 57.9425C35.2879 57.942 35.2879 57.9414 35.2879 57.9409C35.2879 57.9403 35.2879 57.9398 35.2879 57.9392C35.2879 57.9386 35.2879 57.938 35.2879 57.9375C35.2879 57.9369 35.2879 57.9364 35.2879 57.9358C35.2879 57.9353 35.2879 57.9347 35.2879 57.9342C35.2879 57.9336 35.2879 57.933 35.2879 57.9325C35.2879 57.9319 35.2879 57.9314 35.2879 57.9308C35.2879 57.9303 35.2879 57.9297 35.2879 57.9292C35.2879 57.9286 35.2879 57.9281 35.2879 57.9275C35.2879 57.9269 35.2879 57.9264 35.2879 57.9258C35.2879 57.9253 35.2879 57.9247 35.2879 57.9242C35.2879 57.9236 35.2879 57.9231 35.2879 57.9225C35.2879 57.922 35.2879 57.9214 35.2879 57.9208C35.2879 57.9202 35.2879 57.9197 35.2879 57.9191C35.2879 57.9186 35.2879 57.918 35.2879 57.9175C35.2879 57.9169 35.2879 57.9164 35.2879 57.9158C35.2879 57.9153 35.2879 57.9147 35.2879 57.9141C35.2879 57.9136 35.2879 57.913 35.2879 57.9125C35.2879 57.9119 35.2879 57.9114 35.2879 57.9108C35.2879 57.9103 35.2879 57.9097 35.2879 57.9092C35.2879 57.9086 35.2879 57.9081 35.2879 57.9075C35.2879 57.907 35.2879 57.9063 35.2879 57.9058C35.2879 57.9052 35.2879 57.9047 35.2879 57.9041C35.2879 57.9036 35.2879 57.903 35.2879 57.9025C35.2879 57.9019 35.2879 57.9014 35.2879 57.9008C35.2879 57.9003 35.2879 57.8997 35.2879 57.8992C35.2879 57.8986 35.2879 57.8981 35.2879 57.8975C35.2879 57.8969 35.2879 57.8964 35.2879 57.8958C35.2879 57.8953 35.2879 57.8947 35.2879 57.8942C35.2879 57.8936 35.2879 57.8931 35.2879 57.8925C35.2879 57.892 35.2879 57.8914 35.2879 57.8909C35.2879 57.8903 35.2879 57.8898 35.2879 57.8892C35.2879 57.8887 35.2879 57.8881 35.2879 57.8876C35.2879 57.887 35.2879 57.8864 35.2879 57.8859C35.2879 57.8853 35.2879 57.8847 35.2879 57.8842C35.2879 57.8836 35.2879 57.8831 35.2879 57.8825C35.2879 57.882 35.2879 57.8814 35.2879 57.8809C35.2879 57.8803 35.2879 57.8798 35.2879 57.8792C35.2879 57.8787 35.2879 57.8781 35.2879 57.8776C35.2879 57.877 35.2879 57.8765 35.2879 57.8759C35.2879 57.8754 35.2879 57.8748 35.2879 57.8743C35.2879 57.8737 35.2879 57.8732 35.2879 57.8726C35.2879 57.8721 35.2879 57.8715 35.2879 57.8709C35.2879 57.8704 35.2879 57.8698 35.2879 57.8693C35.2879 57.8687 35.2879 57.8682 35.2879 57.8676C35.2879 57.8671 35.2879 57.8665 35.2879 57.866C35.2879 57.8654 35.2879 57.8649 35.2879 57.8643C35.2879 57.8638 35.2879 57.8632 35.2879 57.8627C35.2879 57.8621 35.2879 57.8616 35.2879 57.861C35.2879 57.8605 35.2879 57.8599 35.2879 57.8594C35.2879 57.8588 35.2879 57.8582 35.2879 57.8577C35.2879 57.8571 35.2879 57.8566 35.2879 57.856C35.2879 57.8555 35.2879 57.8549 35.2879 57.8544C35.2879 57.8538 35.2879 57.8533 35.2879 57.8527C35.2879 57.8522 35.2879 57.8516 35.2879 57.8511C35.2879 57.8505 35.2879 57.85 35.2879 57.8494H34.064C34.064 57.85 34.064 57.8505 34.064 57.8511C34.064 57.8516 34.064 57.8522 34.064 57.8527C34.064 57.8533 34.064 57.8538 34.064 57.8544C34.064 57.8549 34.064 57.8555 34.064 57.856C34.064 57.8566 34.064 57.8571 34.064 57.8577C34.064 57.8582 34.064 57.8588 34.064 57.8594C34.064 57.8599 34.064 57.8605 34.064 57.861C34.064 57.8616 34.064 57.8621 34.064 57.8627C34.064 57.8632 34.064 57.8638 34.064 57.8643C34.064 57.8649 34.064 57.8654 34.064 57.866C34.064 57.8665 34.064 57.8671 34.064 57.8676C34.064 57.8682 34.064 57.8687 34.064 57.8693C34.064 57.8698 34.064 57.8704 34.064 57.8709C34.064 57.8715 34.064 57.8721 34.064 57.8726C34.064 57.8732 34.064 57.8737 34.064 57.8743C34.064 57.8748 34.064 57.8754 34.064 57.8759C34.064 57.8765 34.064 57.877 34.064 57.8776C34.064 57.8781 34.064 57.8787 34.064 57.8792C34.064 57.8798 34.064 57.8803 34.064 57.8809C34.064 57.8814 34.064 57.882 34.064 57.8825C34.064 57.8831 34.064 57.8836 34.064 57.8842C34.064 57.8847 34.064 57.8853 34.064 57.8859C34.064 57.8864 34.064 57.887 34.064 57.8876C34.064 57.8881 34.064 57.8887 34.064 57.8892C34.064 57.8898 34.064 57.8903 34.064 57.8909C34.064 57.8914 34.064 57.892 34.064 57.8925C34.064 57.8931 34.064 57.8936 34.064 57.8942C34.064 57.8947 34.064 57.8953 34.064 57.8958C34.064 57.8964 34.064 57.8969 34.064 57.8975C34.064 57.8981 34.064 57.8986 34.064 57.8992C34.064 57.8997 34.064 57.9003 34.064 57.9008C34.064 57.9014 34.064 57.9019 34.064 57.9025C34.064 57.903 34.064 57.9036 34.064 57.9041C34.064 57.9047 34.064 57.9052 34.064 57.9058C34.064 57.9063 34.064 57.907 34.064 57.9075C34.064 57.9081 34.064 57.9086 34.064 57.9092C34.064 57.9097 34.064 57.9103 34.064 57.9108C34.064 57.9114 34.064 57.9119 34.064 57.9125C34.064 57.913 34.064 57.9136 34.064 57.9141C34.064 57.9147 34.064 57.9153 34.064 57.9158C34.064 57.9164 34.064 57.9169 34.064 57.9175C34.064 57.918 34.064 57.9186 34.064 57.9191C34.064 57.9197 34.064 57.9202 34.064 57.9208C34.064 57.9214 34.064 57.922 34.064 57.9225C34.064 57.9231 34.064 57.9236 34.064 57.9242C34.064 57.9247 34.064 57.9253 34.064 57.9258C34.064 57.9264 34.064 57.9269 34.064 57.9275C34.064 57.9281 34.064 57.9286 34.064 57.9292C34.064 57.9297 34.064 57.9303 34.064 57.9308C34.064 57.9314 34.064 57.9319 34.064 57.9325C34.064 57.933 34.064 57.9336 34.064 57.9342C34.064 57.9347 34.064 57.9353 34.064 57.9358C34.064 57.9364 34.064 57.9369 34.064 57.9375C34.064 57.938 34.064 57.9386 34.064 57.9392C34.064 57.9398 34.064 57.9403 34.064 57.9409C34.064 57.9414 34.064 57.942 34.064 57.9425C34.064 57.9431 34.064 57.9436 34.064 57.9442C34.064 57.9448 34.064 57.9453 34.064 57.9459C34.064 57.9464 34.064 57.947 34.064 57.9475C34.064 57.9481 34.064 57.9486 34.064 57.9492C34.064 57.9498 34.064 57.9503 34.064 57.9509C34.064 57.9514 34.064 57.952 34.064 57.9525C34.064 57.9531 34.064 57.9537 34.064 57.9543C34.064 57.9548 34.064 57.9554 34.064 57.9559C34.064 57.9565 34.064 57.957 34.064 57.9576C34.064 57.9582 34.064 57.9587 34.064 57.9593C34.064 57.9598 34.064 57.9604 34.064 57.9609C34.064 57.9615 34.064 57.962 34.064 57.9626C34.064 57.9632 34.064 57.9637 34.064 57.9643C34.064 57.9648 34.064 57.9654 34.064 57.9659C34.064 57.9665 34.064 57.9671 34.064 57.9677C34.064 57.9682 34.064 57.9688 34.064 57.9693C34.064 57.9699 34.064 57.9704 34.064 57.971C34.064 57.9716 34.064 57.9721 34.064 57.9727C34.064 57.9732 34.064 57.9738 34.064 57.9743C34.064 57.9749 34.064 57.9755 34.064 57.9761C34.064 57.9766 34.064 57.9772 34.064 57.9777C34.064 57.9783 34.064 57.9789 34.064 57.9794C34.064 57.98 34.064 57.9805 34.064 57.9811C34.064 57.9816 34.064 57.9822 34.064 57.9828C34.064 57.9833 34.064 57.9839 34.064 57.9844C34.064 57.985 34.064 57.9856 34.064 57.9861C34.064 57.9867 34.064 57.9872 34.064 57.9878C34.064 57.9883 34.064 57.989 34.064 57.9895C34.064 57.9901 34.064 57.9906 34.064 57.9912C34.064 57.9917 34.064 57.9923 34.064 57.9929C34.064 57.9934 34.064 57.994 34.064 57.9945C34.064 57.9951 34.064 57.9957 34.064 57.9962C34.064 57.9968 34.064 57.9973 34.064 57.9979C34.064 57.9984 34.064 57.9991 34.064 57.9996C34.064 58.0002 34.064 58.0007 34.064 58.0013C34.064 58.0018 34.064 58.0024 34.064 58.003C34.064 58.0035 34.064 58.0041 34.064 58.0046C34.064 58.0052 34.064 58.0058 34.064 58.0063C34.064 58.0069 34.064 58.0074 34.064 58.008C34.064 58.0086 34.064 58.0092 34.064 58.0097C34.064 58.0103 34.064 58.0108 34.064 58.0114C34.064 58.012 34.064 58.0125 34.064 58.0131C34.064 58.0136 34.064 58.0142 34.064 58.0148C34.064 58.0153 34.064 58.0159 34.064 58.0164C34.064 58.017 34.064 58.0176 34.064 58.0181C34.064 58.0187 34.064 58.0192 34.064 58.0198C34.064 58.0204 34.064 58.021 34.064 58.0215C34.064 58.0221 34.064 58.0226 34.064 58.0232C34.064 58.0238 34.064 58.0243 34.064 58.0249C34.064 58.0255 34.064 58.026 34.064 58.0266C34.064 58.0271 34.064 58.0277 34.064 58.0283C34.064 58.0289 34.064 58.0294 34.064 58.03C34.064 58.0305 34.064 58.0311 34.064 58.0317C34.064 58.0322 34.064 58.0328 34.064 58.0333C34.064 58.0339 34.064 58.0345 34.064 58.035C34.064 58.0356 34.064 58.0362 34.064 58.0368C34.064 58.0373 34.064 58.0379 34.064 58.0384C34.064 58.039 34.064 58.0396 34.064 58.0401C34.064 58.0407 34.064 58.0413 34.064 58.0418C34.064 58.0424 34.064 58.0429 34.064 58.0435C34.064 58.0441 34.064 58.0446 34.064 58.0452C34.064 58.0457 34.064 58.0464 34.064 58.0469C34.064 58.0475 34.064 58.048 34.064 58.0486C34.064 58.0492 34.064 58.0497 34.064 58.0503C34.064 58.0508 34.064 58.0514 34.064 58.052C34.064 58.0525 34.064 58.0531 34.064 58.0537C34.064 58.0543 34.064 58.0548 34.064 58.0554C34.064 58.056 34.064 58.0565 34.064 58.0571C34.064 58.0576 34.064 58.0582 34.064 58.0588C34.064 58.0593 34.064 58.0599 34.064 58.0605C34.064 58.0611 34.064 58.0616 34.064 58.0622C34.064 58.0628 34.064 58.0633 34.064 58.0639C34.064 58.0644 34.064 58.065 34.064 58.0656C34.064 58.0661 34.064 58.0667 34.064 58.0673C34.064 58.0678 34.064 58.0684 34.064 58.0689C34.064 58.0696 34.064 58.0701 34.064 58.0706C34.064 58.0712 34.064 58.0718 34.064 58.0724C34.064 58.0729 34.064 58.0735 34.064 58.0741C34.064 58.0746 34.064 58.0752 34.064 58.0757C34.064 58.0763 34.064 58.0769 34.064 58.0774C34.064 58.078 34.064 58.0786 34.064 58.0792C34.064 58.0797 34.064 58.0803 34.064 58.0809C34.064 58.0814 34.064 58.082 34.064 58.0826C34.064 58.0831 34.064 58.0837 34.064 58.0842C34.064 58.0848 34.064 58.0854 34.064 58.086C34.064 58.0866 34.064 58.0871 34.064 58.0877C34.064 58.0882 34.064 58.0888 34.064 58.0894C34.064 58.0899 34.064 58.0905 34.064 58.0911C34.064 58.0916 34.064 58.0922 34.064 58.0928C34.064 58.0934 34.064 58.0939 34.064 58.0945C34.064 58.0951 34.064 58.0956 34.064 58.0962C34.064 58.0968 34.064 58.0973 34.064 58.0979C34.064 58.0984 34.064 58.099 34.064 58.0996C34.064 58.1001 34.064 58.1008 34.064 58.1013C34.064 58.1019 34.064 58.1025 34.064 58.103C34.064 58.1036 34.064 58.1041 34.064 58.1047C34.064 58.1053 34.064 58.1058 34.064 58.1064C34.064 58.107 34.064 58.1076 34.064 58.1081C34.064 58.1087 34.064 58.1093 34.064 58.1098C34.064 58.1104 34.064 58.111 34.064 58.1115C34.064 58.1121 34.064 58.1127 34.064 58.1132C34.064 58.1139 34.064 58.1144 34.064 58.115C34.064 58.1155 34.064 58.1161 34.064 58.1167C34.064 58.1172 34.064 58.1178 34.064 58.1184C34.064 58.1189 34.064 58.1195 34.064 58.1201C34.064 58.1207 34.064 58.1213 34.064 58.1218C34.064 58.1224 34.064 58.123 34.064 58.1235C34.064 58.1241 34.064 58.1246 34.064 58.1252C34.064 58.1258 34.064 58.1263 34.064 58.127C34.064 58.1275 34.064 58.1281 34.064 58.1287C34.064 58.1292 34.064 58.1298 34.064 58.1304C34.064 58.1309 34.064 58.1315 34.064 58.1321C34.064 58.1326 34.064 58.1332 34.064 58.1338C34.064 58.1344 34.064 58.1349 34.064 58.1355C34.064 58.1361 34.064 58.1366 34.064 58.1372C34.064 58.1378 34.064 58.1383 34.064 58.1389C34.064 58.1395 34.064 58.14 34.064 58.1407C34.064 58.1412 34.064 58.1418 34.064 58.1424C34.064 58.1429 34.064 58.1435 34.064 58.1441C34.064 58.1446 34.064 58.1452 34.064 58.1458C34.064 58.1463 34.064 58.1469 34.064 58.1475C34.064 58.1481 34.064 58.1486 34.064 58.1492C34.064 58.1498 34.064 58.1504 34.064 58.1509C34.064 58.1515 34.064 58.1521 34.064 58.1527C34.064 58.1532 34.064 58.1538 34.064 58.1544C34.064 58.1549 34.064 58.1555 34.064 58.1561C34.064 58.1566 34.064 58.1572 34.064 58.1578C34.064 58.1583 34.064 58.159 34.064 58.1595C34.064 58.1601 34.064 58.1607 34.064 58.1612C34.064 58.1618 34.064 58.1624 34.064 58.1629C34.064 58.1635 34.064 58.1641 34.064 58.1646C34.064 58.1653 34.064 58.1658 34.064 58.1664C34.064 58.167 34.064 58.1675 34.064 58.1681C34.064 58.1687 34.064 58.1692 34.064 58.1699C34.064 58.1704 34.064 58.171 34.064 58.1716C34.064 58.1721 34.064 58.1727 34.064 58.1733C34.064 58.1738 34.064 58.1744 34.064 58.175C34.064 58.1756 34.064 58.1762 34.064 58.1767C34.064 58.1773 34.064 58.1779 34.064 58.1784C34.064 58.179 34.064 58.1796 34.064 58.1802C34.064 58.1807 34.064 58.1813 34.064 58.1819C34.064 58.1825 34.064 58.183 34.064 58.1836C34.064 58.1842 34.064 58.1848 34.064 58.1853C34.064 58.1859 34.064 58.1865 34.064 58.187C34.064 58.1877 34.064 58.1882 34.064 58.1888C34.064 58.1894 34.064 58.1899 34.064 58.1905C34.064 58.1911 34.064 58.1916 34.064 58.1922C34.064 58.1928 34.064 58.1934 34.064 58.194C34.064 58.1945 34.064 58.1951 34.064 58.1957C34.064 58.1963 34.064 58.1968 34.064 58.1974C34.064 58.198 34.064 58.1985 34.064 58.1992C34.064 58.1997 34.064 58.2003 34.064 58.2009C34.064 58.2014 34.064 58.202 34.064 58.2026C34.064 58.2031 34.064 58.2038 34.064 58.2043C34.064 58.2049 34.064 58.2055 34.064 58.206C34.064 58.2066 34.064 58.2072 34.064 58.2078C34.064 58.2083 34.064 58.209 34.064 58.2095C34.064 58.2101 34.064 58.2107 34.064 58.2112C34.064 58.2118 34.064 58.2124 34.064 58.2129C34.064 58.2135 34.064 58.2141 34.064 58.2147C34.064 58.2153 34.064 58.2159 34.064 58.2164C34.064 58.217 34.064 58.2176 34.064 58.2181C34.064 58.2187 34.064 58.2193 34.064 58.2199C34.064 58.2205 34.064 58.221 34.064 58.2216C34.064 58.2222 34.064 58.2228 34.064 58.2233C34.064 58.2239 34.064 58.2245 34.064 58.225C34.064 58.2257 34.064 58.2262 34.064 58.2268C34.064 58.2274 34.064 58.228 34.064 58.2285C34.064 58.2291 34.064 58.2297 34.064 58.2302C34.064 58.2309 34.064 58.2314 34.064 58.232C34.064 58.2326 34.064 58.2332 34.064 58.2337C34.064 58.2343 34.064 58.2349 34.064 58.2354C34.064 58.2361 34.064 58.2366 34.064 58.2372C34.064 58.2378 34.064 58.2384 34.064 58.2389C34.064 58.2395 34.064 58.2401 34.064 58.2406C34.064 58.2413 34.064 58.2418 34.064 58.2424C34.064 58.243 34.064 58.2436 34.064 58.2441C34.064 58.2448 34.064 58.2453 34.064 58.2458C34.064 58.2465 34.064 58.247 34.064 58.2476C34.064 58.2482 34.064 58.2488 34.064 58.2493C34.064 58.25 34.064 58.2505 34.064 58.2511C34.064 58.2517 34.064 58.2522 34.064 58.2528C34.064 58.2534 34.064 58.254 34.064 58.2545C34.064 58.2552 34.064 58.2557 34.064 58.2563C34.064 58.2569 34.064 58.2575 34.064 58.258C34.064 58.2586 34.064 58.2592 34.064 58.2598C34.064 58.2604 34.064 58.261 34.064 58.2615C34.064 58.2621 34.064 58.2627 34.064 58.2632C34.064 58.2638 34.064 58.2644 34.064 58.265C34.064 58.2656 34.064 58.2662 34.064 58.2667C34.064 58.2673 34.064 58.2679 34.064 58.2685C34.064 58.269 34.064 58.2697 34.064 58.2702C34.064 58.2708 34.064 58.2714 34.064 58.272C34.064 58.2725 34.064 58.2731 34.064 58.2737C34.064 58.2743 34.064 58.2749 34.064 58.2755C34.064 58.276 34.064 58.2766 34.064 58.2772C34.064 58.2778 34.064 58.2783 34.064 58.279C34.064 58.2795 34.064 58.2801 34.064 58.2807C34.064 58.2813 34.064 58.2818 34.064 58.2824C34.064 58.283 34.064 58.2835 34.064 58.2842C34.064 58.2847 34.064 58.2853 34.064 58.2859C34.064 58.2865 34.064 58.2871 34.064 58.2877C34.064 58.2883 34.064 58.2888 34.064 58.2894C34.064 58.29 34.064 58.2906 34.064 58.2911C34.064 58.2917 34.064 58.2923 34.064 58.2929C34.064 58.2935 34.064 58.2941 34.064 58.2946C34.064 58.2952 34.064 58.2958 34.064 58.2964C34.064 58.297 34.064 58.2976 34.064 58.2981C34.064 58.2987 34.064 58.2993 34.064 58.2999C34.064 58.3004 34.064 58.3011 34.064 58.3016C34.064 58.3022 34.064 58.3028 34.064 58.3034C34.064 58.3039 34.064 58.3045 34.064 58.3051C34.064 58.3057 34.064 58.3062 34.064 58.3069C34.064 58.3075 34.064 58.308 34.064 58.3086C34.064 58.3092 34.064 58.3098 34.064 58.3104C34.064 58.311 34.064 58.3115 34.064 58.3121C34.064 58.3127 34.064 58.3133 34.064 58.3138C34.064 58.3144 34.064 58.315 34.064 58.3156C34.064 58.3162 34.064 58.3168 34.064 58.3174C34.064 58.3179 34.064 58.3186 34.064 58.3191C34.064 58.3197 34.064 58.3203 34.064 58.3209C34.064 58.3214 34.064 58.322 34.064 58.3226C34.064 58.3232 34.064 58.3238 34.064 58.3244C34.064 58.325 34.064 58.3255 34.064 58.3261C34.064 58.3267 34.064 58.3273 34.064 58.3279C34.064 58.3285 34.064 58.329 34.064 58.3296C34.064 58.3302 34.064 58.3308 34.064 58.3314C34.064 58.3319 34.064 58.3326 34.064 58.3331C34.064 58.3337 34.064 58.3343 34.064 58.3349C34.064 58.3355 34.064 58.3361 34.064 58.3367C34.064 58.3372 34.064 58.3378 34.064 58.3384C34.064 58.339 34.064 58.3395 34.064 58.3402C34.064 58.3408 34.064 58.3413 34.064 58.3419C34.064 58.3425 34.064 58.3431 34.064 58.3436C34.064 58.3443 34.064 58.3449 34.064 58.3454C34.064 58.346 34.064 58.3466 34.064 58.3472C34.064 58.3477 34.064 58.3484 34.064 58.349C34.064 58.3495 34.064 58.3501 34.064 58.3507C34.064 58.3513 34.064 58.3518 34.064 58.3525C34.064 58.3531 34.064 58.3536 34.064 58.3542C34.064 58.3548 34.064 58.3554 34.064 58.3559C34.064 58.3565 34.064 58.3572 34.064 58.3577C34.064 58.3583 34.064 58.3589 34.064 58.3595C34.064 58.3601 34.064 58.3606 34.064 58.3613C34.064 58.3618 34.064 58.3624 34.064 58.363C34.064 58.3636 34.064 58.3642 34.064 58.3648C34.064 58.3654 34.064 58.3659 34.064 58.3665C34.064 58.3671 34.064 58.3677 34.064 58.3683C34.064 58.3689 34.064 58.3695 34.064 58.3701C34.064 58.3706 34.064 58.3712 34.064 58.3718C34.064 58.3724 34.064 58.373 34.064 58.3736C34.064 58.3742 34.064 58.3747 34.064 58.3753C34.064 58.376 34.064 58.3765 34.064 58.3771C34.064 58.3777 34.064 58.3783 34.064 58.3789C34.064 58.3794 34.064 58.38 34.064 58.3806C34.064 58.3812 34.064 58.3818 34.064 58.3824C34.064 58.383 34.064 58.3835 34.064 58.3842C34.064 58.3848 34.064 58.3853 34.064 58.3859C34.064 58.3865 34.064 58.3871 34.064 58.3877C34.064 58.3883 34.064 58.3889 34.064 58.3895C34.064 58.39 34.064 58.3906 34.064 58.3912C34.064 58.3918 34.064 58.3924 34.064 58.393C34.064 58.3936 34.064 58.3942 34.064 58.3947C34.064 58.3953 34.064 58.3959 34.064 58.3965C34.064 58.3971 34.064 58.3977 34.064 58.3983C34.064 58.3989 34.064 58.3994 34.064 58.4001C34.064 58.4006 34.064 58.4012 34.064 58.4018C34.064 58.4024 34.064 58.403 34.064 58.4036C34.064 58.4042 34.064 58.4048 34.064 58.4053C34.064 58.4059 34.064 58.4065 34.064 58.4071C34.064 58.4077 34.064 58.4083 34.064 58.4089C34.064 58.4095 34.064 58.4101 34.064 58.4106C34.064 58.4113 34.064 58.4118 34.064 58.4124C34.064 58.413 34.064 58.4136 34.064 58.4142C34.064 58.4148 34.064 58.4154 34.064 58.416C34.064 58.4166 34.064 58.4171 34.064 58.4177C34.064 58.4184 34.064 58.4189 34.064 58.4195C34.064 58.4201 34.064 58.4207 34.064 58.4213C34.064 58.4219 34.064 58.4225 34.064 58.4231C34.064 58.4236 34.064 58.4242 34.064 58.4248C34.064 58.4254 34.064 58.426 34.064 58.4266C34.064 58.4272 34.064 58.4278 34.064 58.4284C34.064 58.4289 34.064 58.4296 34.064 58.4302C34.064 58.4307 34.064 58.4313 34.064 58.4319C34.064 58.4325 34.064 58.4331 34.064 58.4337C34.064 58.4343 34.064 58.4349 34.064 58.4355C34.064 58.436 34.064 58.4367 34.064 58.4373C34.064 58.4378 34.064 58.4384 34.064 58.439C34.064 58.4396 34.064 58.4402 34.064 58.4408C34.064 58.4414 34.064 58.442 34.064 58.4426C34.064 58.4431 34.064 58.4438 34.064 58.4444C34.064 58.4449 34.064 58.4455 34.064 58.4461C34.064 58.4467 34.064 58.4473 34.064 58.4479C34.064 58.4485 34.064 58.4491 34.064 58.4497C34.064 58.4503 34.064 58.4509 34.064 58.4515C34.064 58.4521 34.064 58.4526 34.064 58.4532C34.064 58.4539 34.064 58.4544 34.064 58.455C34.064 58.4556 34.064 58.4562 34.064 58.4568C34.064 58.4574 34.064 58.458 34.064 58.4586C34.064 58.4592 34.064 58.4598 34.064 58.4603C34.064 58.461 34.064 58.4616 34.064 58.4621C34.064 58.4627 34.064 58.4633 34.064 58.4639C34.064 58.4645 34.064 58.4651 34.064 58.4657C34.064 58.4663 34.064 58.4669 34.064 58.4675C34.064 58.4681 34.064 58.4687 34.064 58.4693C34.064 58.4699 34.064 58.4704 34.064 58.471C34.064 58.4717 34.064 58.4722 34.064 58.4728C34.064 58.4734 34.064 58.474 34.064 58.4746C34.064 58.4752 34.064 58.4758 34.064 58.4764C34.064 58.477 34.064 58.4776 34.064 58.4781C34.064 58.4788 34.064 58.4794 34.064 58.48C34.064 58.4805 34.064 58.4811 34.064 58.4818C34.064 58.4823 34.064 58.4829 34.064 58.4835C34.064 58.4841 34.064 58.4847 34.064 58.4853C34.064 58.4859 34.064 58.4865 34.064 58.4871C34.064 58.4877 34.064 58.4883 34.064 58.4889C34.064 58.4895 34.064 58.4901 34.064 58.4907C34.064 58.4912 34.064 58.4918 34.064 58.4925C34.064 58.4931 34.064 58.4936 34.064 58.4942C34.064 58.4948 34.064 58.4954 34.064 58.496C34.064 58.4966 34.064 58.4972 34.064 58.4978C34.064 58.4984 34.064 58.499 34.064 58.4996C34.064 58.5002 34.064 58.5008 34.064 58.5014C34.064 58.502 34.064 58.5026 34.064 58.5032C34.064 58.5038 34.064 58.5044 34.064 58.5049C34.064 58.5056 34.064 58.5062 34.064 58.5068C34.064 58.5073 34.064 58.5079 34.064 58.5086C34.064 58.5092 34.064 58.5097 34.064 58.5103C34.064 58.5109 34.064 58.5116 34.064 58.5121C34.064 58.5127 34.064 58.5133 34.064 58.5139C34.064 58.5145 34.064 58.5151 34.064 58.5157C34.064 58.5163 34.064 58.5169 34.064 58.5175C34.064 58.5181 34.064 58.5187 34.064 58.5193C34.064 58.5199 34.064 58.5205 34.064 58.5211C34.064 58.5217 34.064 58.5223 34.064 58.5229C34.064 58.5235 34.064 58.524 34.064 58.5247C34.064 58.5253 34.064 58.5259 34.064 58.5264C34.064 58.527 34.064 58.5276 34.064 58.5283C34.064 58.5289 34.064 58.5294 34.064 58.53C34.064 58.5306 34.064 58.5313 34.064 58.5318C34.064 58.5324 34.064 58.533 34.064 58.5336C34.064 58.5343 34.064 58.5348 34.064 58.5354C34.064 58.536 34.064 58.5366 34.064 58.5372C34.064 58.5378 34.064 58.5384 34.064 58.539C34.064 58.5396 34.064 58.5402 34.064 58.5408C34.064 58.5414 34.064 58.542 34.064 58.5426C34.064 58.5432 34.064 58.5438 34.064 58.5444C34.064 58.545 34.064 58.5456 34.064 58.5462C34.064 58.5468 34.064 58.5474 34.064 58.548C34.064 58.5486 34.064 58.5492 34.064 58.5498C34.064 58.5504 34.064 58.551 34.064 58.5516C34.064 58.5522 34.064 58.5528 34.064 58.5534C34.064 58.554 34.064 58.5546 34.064 58.5552C34.064 58.5558 34.064 58.5564 34.064 58.557C34.064 58.5576 34.064 58.5582 34.064 58.5588C34.064 58.5594 34.064 58.56 34.064 58.5606C34.064 58.5612 34.064 58.5618 34.064 58.5624C34.064 58.563 34.064 58.5636 34.064 58.5642C34.064 58.5648 34.064 58.5654 34.064 58.566C34.064 58.5666 34.064 58.5672 34.064 58.5678C34.064 58.5684 34.064 58.569 34.064 58.5696C34.064 58.5702 34.064 58.5708 34.064 58.5714C34.064 58.572 34.064 58.5726 34.064 58.5732C34.064 58.5738 34.064 58.5744 34.064 58.575C34.064 58.5756 34.064 58.5762 34.064 58.5768C34.064 58.5774 34.064 58.578 34.064 58.5786C34.064 58.5792 34.064 58.5798 34.064 58.5804C34.064 58.581 34.064 58.5816 34.064 58.5822C34.064 58.5829 34.064 58.5834 34.064 58.584C34.064 58.5846 34.064 58.5852 34.064 58.5858C34.064 58.5864 34.064 58.587 34.064 58.5876C34.064 58.5882 34.064 58.5888 34.064 58.5895C34.064 58.5901 34.064 58.5906 34.064 58.5912C34.064 58.5918 34.064 58.5925 34.064 58.5931C34.064 58.5937 34.064 58.5942 34.064 58.5948C34.064 58.5955 34.064 58.5961 34.064 58.5967C34.064 58.5973 34.064 58.5978 34.064 58.5984C34.064 58.5991 34.064 58.5997 34.064 58.6003C34.064 58.6009 34.064 58.6015 34.064 58.6021C34.064 58.6027 34.064 58.6033 34.064 58.6039C34.064 58.6045 34.064 58.6051 34.064 58.6057C34.064 58.6063 34.064 58.6069 34.064 58.6075C34.064 58.6081 34.064 58.6087 34.064 58.6093C34.064 58.6099 34.064 58.6105 34.064 58.6111C34.064 58.6117 34.064 58.6123 34.064 58.613C34.064 58.6136 34.064 58.6141 34.064 58.6147C34.064 58.6153 34.064 58.616 34.064 58.6166C34.064 58.6172 34.064 58.6178 34.064 58.6184C34.064 58.619 34.064 58.6196 34.064 58.6202C34.064 58.6208 34.064 58.6214 34.064 58.622C34.064 58.6226 34.064 58.6232 34.064 58.6238C34.064 58.6244 34.064 58.625 34.064 58.6256C34.064 58.6262 34.064 58.6268 34.064 58.6275C34.064 58.6281 34.064 58.6286 34.064 58.6292C34.064 58.6298 34.064 58.6305 34.064 58.6311C34.064 58.6317 34.064 58.6323 34.064 58.6329C34.064 58.6335 34.064 58.6341 34.064 58.6347C34.064 58.6353 34.064 58.6359 34.064 58.6365C34.064 58.6371 34.064 58.6377 34.064 58.6383C34.064 58.6389 34.064 58.6395 34.064 58.6401C34.064 58.6407 34.064 58.6414 34.064 58.642C34.064 58.6426 34.064 58.6432 34.064 58.6438C34.064 58.6443 34.064 58.645 34.064 58.6456C34.064 58.6462 34.064 58.6468 34.064 58.6474C34.064 58.648 34.064 58.6486 34.064 58.6492C34.064 58.6499 34.064 58.6504 34.064 58.651C34.064 58.6516 34.064 58.6522 34.064 58.6528C34.064 58.6535 34.064 58.6541 34.064 58.6547C34.064 58.6553 34.064 58.6559 34.064 58.6565C34.064 58.6571 34.064 58.6577 34.064 58.6583C34.064 58.6589 34.064 58.6595 34.064 58.6601C34.064 58.6607 34.064 58.6614 34.064 58.662C34.064 58.6626 34.064 58.6632 34.064 58.6637C34.064 58.6644 34.064 58.665 34.064 58.6656C34.064 58.6662 34.064 58.6668 34.064 58.6674C34.064 58.668 34.064 58.6686 34.064 58.6693C34.064 58.6699 34.064 58.6705 34.064 58.671C34.064 58.6716 34.064 58.6722 34.064 58.6729C34.064 58.6735 34.064 58.6741 34.064 58.6747C34.064 58.6753 34.064 58.6759 34.064 58.6765C34.064 58.6772 34.064 58.6778 34.064 58.6784C34.064 58.679 34.064 58.6795 34.064 58.6801C34.064 58.6808 34.064 58.6814 34.064 58.682C34.064 58.6826 34.064 58.6832 34.064 58.6838C34.064 58.6844 34.064 58.685 34.064 58.6857C34.064 58.6863 34.064 58.6869 34.064 58.6875C34.064 58.6881 34.064 58.6887 34.064 58.6893C34.064 58.6899 34.064 58.6905 34.064 58.6911C34.064 58.6917 34.064 58.6923 34.064 58.6929C34.064 58.6935 34.064 58.6942 34.064 58.6948C34.064 58.6954 34.064 58.696 34.064 58.6966C34.064 58.6972 34.064 58.6978 34.064 58.6984C34.064 58.6991 34.064 58.6997 34.064 58.7003C34.064 58.7009 34.064 58.7014 34.064 58.702C34.064 58.7027 34.064 58.7033 34.064 58.7039C34.064 58.7045 34.064 58.7051 34.064 58.7057C34.064 58.7063 34.064 58.7069 34.064 58.7076C34.064 58.7082 34.064 58.7088 34.064 58.7094C34.064 58.71 34.064 58.7106 34.064 58.7112C34.064 58.7118 34.064 58.7125 34.064 58.7131C34.064 58.7137 34.064 58.7143 34.064 58.7149C34.064 58.7155 34.064 58.7161 34.064 58.7167C34.064 58.7173 34.064 58.718 34.064 58.7185C34.064 58.7191 34.064 58.7197 34.064 58.7204C34.064 58.721 34.064 58.7216 34.064 58.7222C34.064 58.7228 34.064 58.7234 34.064 58.724C34.064 58.7246 34.064 58.7252 34.064 58.7259C34.064 58.7265 34.064 58.7271 34.064 58.7277C34.064 58.7283 34.064 58.7289 34.064 58.7295C34.064 58.7301 34.064 58.7308 34.064 58.7314C34.064 58.732 34.064 58.7326 34.064 58.7332C34.064 58.7338 34.064 58.7344 34.064 58.735C34.064 58.7357 34.064 58.7363 34.064 58.7369C34.064 58.7375 34.064 58.7381 34.064 58.7387C34.064 58.7393 34.064 58.7399 34.064 58.7405C34.064 58.7412 34.064 58.7418 34.064 58.7424H35.2879ZM34.9178 57.2873C32.4246 56.2146 30.7473 54.1596 29.9096 51.0182L28.7271 51.3336C29.6439 54.7717 31.5384 57.1657 34.4341 58.4116L34.9178 57.2873ZM29.9076 51.0109C29.4851 49.502 29.2723 47.8973 29.2723 46.1942H28.0484C28.0484 48.0001 28.2742 49.7166 28.729 51.3408L29.9076 51.0109ZM29.2723 46.1942C29.2723 44.4978 29.5147 42.6845 30.0054 40.7522L28.8192 40.4509C28.3073 42.4663 28.0484 44.3815 28.0484 46.1942H29.2723ZM29.5487 40.005C27.44 39.523 25.6329 38.6537 24.1147 37.4033L23.3367 38.3481C25.0142 39.7296 26.9983 40.6775 29.276 41.1981L29.5487 40.005ZM24.1147 37.4033C22.5846 36.1432 21.5078 34.7191 20.8616 33.1331L19.7282 33.5949C20.4606 35.3926 21.671 36.9763 23.3367 38.3481L24.1147 37.4033ZM20.8614 33.1326C19.9748 30.9619 19.5439 28.9892 19.5439 27.2074H18.32C18.32 29.1853 18.7978 31.317 19.7284 33.5954L20.8614 33.1326ZM19.5439 27.2074C19.5439 25.3932 19.8309 23.6933 20.4009 22.1032L19.2489 21.6902C18.6283 23.4212 18.32 25.2618 18.32 27.2074H19.5439ZM20.4009 22.1032C20.9738 20.5052 21.8041 18.9941 22.8956 17.5691L21.9239 16.8249C20.7595 18.3451 19.8666 19.9671 19.2489 21.6902L20.4009 22.1032ZM22.9042 17.5576C23.9347 16.1444 25.3402 14.9995 27.1408 14.1292L26.6082 13.0273C24.649 13.9742 23.0781 15.2418 21.9153 16.8365L22.9042 17.5576ZM27.1481 14.1256C28.9369 13.2312 30.9101 12.7803 33.0781 12.7803V11.5564C30.7344 11.5564 28.5718 12.0454 26.6008 13.0309L27.1481 14.1256ZM33.0781 12.7803C35.2252 12.7803 36.9867 13.196 38.3924 13.9931C39.7922 14.7868 40.8764 15.9794 41.6422 17.5996L42.7488 17.0765C41.8854 15.2501 40.6354 13.858 38.996 12.9284C37.3626 12.0023 35.38 11.5564 33.0781 11.5564V12.7803ZM41.6482 17.6117C41.6635 17.6423 41.6461 17.6226 41.6489 17.566C41.6504 17.5366 41.6571 17.5043 41.6703 17.4728C41.6832 17.4416 41.6992 17.419 41.7115 17.405C41.7333 17.3801 41.7369 17.3892 41.6826 17.4133C41.6303 17.4365 41.5454 17.4643 41.4175 17.4899L41.6575 18.69C41.9991 18.6217 42.3833 18.4957 42.6326 18.2109C42.7721 18.0515 42.8601 17.8518 42.8713 17.627C42.882 17.4137 42.8215 17.2217 42.7428 17.0643L41.6482 17.6117ZM41.4868 17.4802C41.1585 17.5075 40.9517 17.4772 40.8318 17.4332C40.7301 17.3959 40.7009 17.3548 40.6833 17.3165L39.572 17.8295C39.9317 18.6088 40.776 18.7675 41.5883 18.6998L41.4868 17.4802ZM40.7082 17.3795C40.1958 15.8424 39.281 14.6613 37.9619 13.875C36.6551 13.0962 34.9971 12.7313 33.0311 12.7313V13.9552C34.8561 13.9552 36.2764 14.2953 37.3352 14.9264C38.3816 15.55 39.1195 16.4838 39.5471 17.7665L40.7082 17.3795ZM50.467 19.1699C48.539 19.1699 46.6084 19.8138 44.684 21.0533L45.3467 22.0822C47.1194 20.9405 48.8232 20.3938 50.467 20.3938V19.1699ZM44.6862 21.0518C42.8041 22.2525 41.0938 23.8366 39.5527 25.795L40.5146 26.5519C41.9813 24.6878 43.5921 23.2015 45.3444 22.0837L44.6862 21.0518ZM39.5522 25.7957C36.3066 29.9324 33.9369 34.5935 32.4431 39.774L33.6191 40.1131C35.0704 35.0796 37.3691 30.5607 40.5151 26.5512L39.5522 25.7957ZM33.0311 40.5555H33.689V39.3316H33.0311V40.5555ZM33.689 40.5555C39.9731 40.5555 45.2954 38.5463 49.6155 34.5164L48.7807 33.6215C44.7039 37.4244 39.6869 39.3316 33.689 39.3316V40.5555ZM49.6154 34.5165C52.4738 31.8507 54.2617 28.9399 54.9198 25.7813L53.7216 25.5316C53.1265 28.3887 51.4993 31.0862 48.7807 33.6214L49.6154 34.5165ZM54.9218 25.771C55.0526 25.0844 55.1207 24.45 55.1207 23.8706H53.8968C53.8968 24.3565 53.8395 24.9126 53.7196 25.542L54.9218 25.771ZM55.1207 23.8706C55.1207 22.0703 54.4475 20.6744 53.0397 19.8223L52.406 20.8693C53.3793 21.4584 53.8968 22.4124 53.8968 23.8706H55.1207ZM53.0496 19.8284C52.3319 19.3751 51.4581 19.1699 50.467 19.1699V20.3938C51.293 20.3938 51.9232 20.5646 52.3961 20.8632L53.0496 19.8284ZM47.6002 41.6815C44.7745 41.6815 42.2933 43.4182 40.1378 46.6031L41.1514 47.2891C43.1943 44.2704 45.3502 42.9054 47.6002 42.9054V41.6815ZM40.1354 46.6067C38.0134 49.7897 36.7119 53.327 36.2306 57.2102L37.4451 57.3607C37.9037 53.6617 39.14 50.3062 41.1537 47.2856L40.1354 46.6067ZM36.6579 57.8704C37.5345 58.1401 38.4571 58.2734 39.4227 58.2734V57.0495C38.571 57.0495 37.7704 56.9321 37.0178 56.7006L36.6579 57.8704ZM39.4227 58.2734C43.0795 58.2734 46.1478 56.6645 48.5993 53.5264L47.6349 52.773C45.3868 55.6506 42.6587 57.0495 39.4227 57.0495V58.2734ZM48.5956 53.5312C50.5033 51.1386 51.5019 48.7209 51.5019 46.2882H50.278C50.278 48.3672 49.4281 50.5238 47.6387 52.7683L48.5956 53.5312ZM51.5019 46.2882C51.5019 45.0961 51.2881 44.0792 50.7975 43.2962C50.2942 42.4927 49.5344 41.9922 48.5728 41.7888L48.3194 42.9861C48.9871 43.1273 49.4492 43.4493 49.7604 43.946C50.0845 44.4632 50.278 45.2244 50.278 46.2882H51.5019ZM48.5945 41.7938C48.2863 41.7167 47.9533 41.6815 47.6002 41.6815V42.9054C47.8736 42.9054 48.1046 42.9328 48.2977 42.9811L48.5945 41.7938Z" fill="white"/>
</g>
<defs>
<linearGradient id="paint0_linear" x1="-17.6525" y1="54.0223" x2="55.2771" y2="96.2489" gradientUnits="userSpaceOnUse">
<stop stop-color="#C2509C"/>
<stop offset="1" stop-color="#9E6AFF"/>
</linearGradient>
<clipPath id="clip0">
<rect width="82" height="82" fill="white"/>
</clipPath>
</defs>
</svg>
